<?xml version="1.0" encoding="UTF-8" standalone="no"?>
<svg
   xmlns:dc="http://purl.org/dc/elements/1.1/"
   xmlns:cc="http://creativecommons.org/ns#"
   xmlns:rdf="http://www.w3.org/1999/02/22-rdf-syntax-ns#"
   xmlns:svg="http://www.w3.org/2000/svg"
   xmlns="http://www.w3.org/2000/svg"
   xmlns:sodipodi="http://sodipodi.sourceforge.net/DTD/sodipodi-0.dtd"
   xmlns:inkscape="http://www.inkscape.org/namespaces/inkscape"
   version="1.1"
   id="svg2"
   xml:space="preserve"
   width="273.18533"
   height="205.33333"
   viewBox="0 0 273.18533 205.33333"
   sodipodi:docname="EF_Only_2.ai"><metadata
     id="metadata8"><rdf:RDF><cc:Work
         rdf:about=""><dc:format>image/svg+xml</dc:format><dc:type
           rdf:resource="http://purl.org/dc/dcmitype/StillImage" /></cc:Work></rdf:RDF></metadata><defs
     id="defs6"><clipPath
       clipPathUnits="userSpaceOnUse"
       id="clipPath18"><path
         d="M 0,154 H 204.889 V 0 H 0 Z"
         id="path16" /></clipPath><linearGradient
       x1="0"
       y1="0"
       x2="1"
       y2="0"
       gradientUnits="userSpaceOnUse"
       gradientTransform="matrix(0,65.454826,65.454826,0,120.1525,54.116894)"
       spreadMethod="pad"
       id="linearGradient476"><stop
         style="stop-opacity:1;stop-color:#fbb03f"
         offset="0"
         id="stop468" /><stop
         style="stop-opacity:1;stop-color:#ed683d"
         offset="0.613606"
         id="stop470" /><stop
         style="stop-opacity:1;stop-color:#e93e39"
         offset="0.866071"
         id="stop472" /><stop
         style="stop-opacity:1;stop-color:#e93e39"
         offset="1"
         id="stop474" /></linearGradient></defs><sodipodi:namedview
     pagecolor="#ffffff"
     bordercolor="#666666"
     borderopacity="1"
     objecttolerance="10"
     gridtolerance="10"
     guidetolerance="10"
     inkscape:pageopacity="0"
     inkscape:pageshadow="2"
     inkscape:window-width="640"
     inkscape:window-height="480"
     id="namedview4" /><g
     id="g10"
     inkscape:groupmode="layer"
     inkscape:label="EF_Only_2"
     transform="matrix(1.3333333,0,0,-1.3333333,0,205.33333)"><g
       id="g12"><g
         id="g14"
         clip-path="url(#clipPath18)"><g
           id="g20"
           transform="translate(48.9236,116.2457)"><path
             d="M 0,0 C 0,-0.176 0.176,-0.263 0.527,-0.263 L 0.395,-0.395 V -0.527 L 0.527,-0.658 H 0.263 v 0.263 h -0.395 l -0.131,-0.132 0.131,-0.396 v -0.13 l 0.395,0.13 c 0.176,0 0.264,-0.175 0.264,-0.525 h 0.131 v 0.13 l 0.66,0.66 -0.791,-0.395 v 0.13 c 0,0.176 0.131,0.265 0.396,0.265 v 0.131 L 0.658,-0.263 0.923,0.132 H 0.527 V -0.132 H 0.395 V 0.132 L 0.527,0.263 H 0.263 Z M 1.448,-0.263 V -0.527 H 1.844 V -0.658 L 1.318,-0.79 v -0.263 l 0.393,-0.133 h 0.133 l 0.132,0.133 h 0.131 l -0.263,0.79 0.132,0.131 z m -6.321,-0.395 h 0.263 v 0.132 h -0.263 z m 5.926,-0.79 H 1.318 L 1.053,-1.186 Z M 0.658,-1.711 H 0.79 v 0.263 H 0.658 Z m -5.663,-0.133 h 0.264 l -0.264,0.263 z M 7.902,-2.239 v -0.132 c 0,-0.176 0.176,-0.263 0.527,-0.263 L 8.297,-2.766 V -2.897 L 8.429,-3.029 H 8.165 v 0.263 H 7.77 L 7.639,-2.897 7.77,-3.292 v -0.132 l 0.395,0.132 H 8.297 V -3.424 H 8.034 L 8.165,-3.819 H 8.56 l 0.132,0.395 c 0.352,0 0.528,0.132 0.528,0.395 L 8.429,-3.424 v 0.132 c 0,0.174 0.131,0.263 0.395,0.263 v 0.132 l -0.395,0.526 h 0.395 v 0.132 L 8.297,-2.107 Z M 9.35,-2.634 V -2.897 H 9.745 V -3.029 L 9.22,-3.161 v -0.263 l 0.262,-0.263 h 0.263 v 0.13 l 0.133,0.133 h 0.132 l -0.265,0.79 0.133,0.132 z M 3.029,-3.029 h 0.263 v 0.132 H 3.029 Z m 5.926,-0.79 h 0.263 v 0.263 H 8.955 Z M 8.56,-4.082 h 0.132 v 0.263 H 8.56 Z M 2.897,-4.215 H 3.16 v 0.132 H 2.897 Z m -3.95,-2.896 h 0.263 v 0.263 h -0.263 z m -6.717,-3.03 h 0.263 v 0.263 H -7.77 Z M 0,-10.404 v -0.264 l 0.132,-0.131 -1.318,-0.132 h -0.262 v -1.581 l -0.133,-0.132 c 0.462,-0.35 0.857,-0.526 1.186,-0.526 h 0.132 l 0.131,0.131 v -0.131 c 2.261,0 3.753,-0.527 4.479,-1.58 h 0.131 l 0.262,0.79 H 5.136 C 4.829,-14.663 4.61,-15.013 4.478,-15.013 L 4.61,-19.755 4.478,-20.15 4.61,-20.281 v -1.318 L 4.478,-21.73 H 4.61 l -0.132,-0.132 v -0.132 l 0.132,-0.131 v -2.766 l -0.132,-0.132 0.132,-0.131 v -0.132 l -0.132,-0.132 0.132,-0.131 v -0.923 l -0.132,-0.132 0.132,-0.131 v -1.185 l -0.132,-0.132 0.132,-0.131 v -6.718 H 3.161 l -0.264,-0.263 v -2.766 l 0.132,0.132 0.658,-0.263 v -0.132 c -0.263,0 -0.395,-0.087 -0.395,-0.263 l -0.395,-0.395 v -0.132 h 0.264 v -0.395 l -0.132,-0.131 h 0.263 v -0.132 l -0.131,-0.133 v -0.79 H 2.897 v -0.526 h 0.264 v 0.263 l -0.132,0.132 h 0.395 v -0.527 L 3.161,-41.485 H 2.897 v -0.527 h 0.132 l 0.132,0.132 0.131,-0.395 -0.263,-0.263 v -0.132 l 0.132,-0.133 0.658,0.133 v 0.262 H 3.687 l -0.131,-0.13 v 0.263 h 0.396 l 0.526,-0.263 H 4.61 l -0.132,-0.395 v -0.133 L 4.61,-43.198 H 4.478 l 0.132,-0.395 c 0,-0.263 -0.089,-0.395 -0.263,-0.395 l 0.131,-0.131 v -0.132 l -0.131,-0.132 v -0.131 H 4.61 v -0.527 L 4.478,-45.7 H 4.347 c 0,0.263 -0.089,0.396 -0.265,0.396 l -0.526,-0.528 v -0.131 l 0.131,0.131 0.923,-0.131 v -0.132 H 4.347 l 0.131,-0.395 v -0.132 L 4.347,-46.753 H 4.61 l -0.132,-0.395 v -0.132 l 0.132,-0.132 -0.132,-0.526 0.132,-0.791 v -0.132 H 4.347 v -0.131 l 0.263,-0.395 v -0.395 l -0.395,-0.527 c -0.528,0 -0.791,-0.087 -0.791,-0.263 H 3.292 l -0.131,0.13 v -0.262 l 0.921,-0.526 h 0.133 v 0.788 l 0.263,0.265 H 4.61 v -0.132 l -0.263,-0.921 0.263,-1.055 -0.263,-0.79 h 0.131 l -0.263,-0.263 v 0.263 H 3.952 v -0.131 l 0.13,-0.132 -0.658,-0.133 v -0.263 h 0.395 l 0.659,0.133 v -0.791 H 4.347 l -0.132,0.133 H 4.082 l 0.396,-0.66 c 0,-0.855 -0.263,-1.471 -0.791,-1.844 l -0.131,0.528 0.526,0.658 v 0.263 L 3.819,-55.05 H 3.687 l -0.131,-0.132 v -0.132 l 0.131,-0.131 v -0.264 c -0.176,0 -0.263,-0.131 -0.263,-0.396 l -0.395,0.265 v -0.528 l 0.263,-0.395 v -0.263 H 2.897 c 0,0.263 -0.087,0.396 -0.263,0.396 0,0.482 0.219,0.921 0.658,1.316 L 3.029,-55.05 H 2.897 c -0.131,-0.614 -0.526,-0.922 -1.186,-0.922 v 0.132 l -0.526,0.131 -0.132,-0.131 c -2.809,-0.155 -4.214,-0.594 -4.214,-1.318 v -3.424 l 1.054,-1.053 h 6.059 c 0,0.263 0.087,0.395 0.263,0.395 0,0.242 -0.22,0.372 -0.659,0.395 v 0.132 l 0.396,0.131 h 0.263 v -0.131 l -0.133,-0.132 0.528,-0.527 h 0.13 l 0.133,0.132 0.132,-0.395 H 5.4 v 0.263 c 0.439,0 0.658,0.088 0.658,0.264 H 6.19 l 0.263,-0.264 v -0.131 H 6.19 v -0.132 h 1.054 l 0.395,0.263 H 7.77 l 0.132,-0.131 v 0.131 l 0.132,0.132 v 0.132 H 7.77 L 7.639,-61.24 7.507,-61.108 H 7.111 l -0.13,-0.132 -0.132,0.132 v 0.131 l 0.132,0.132 -0.528,0.395 -0.79,-0.395 H 5.531 l 0.264,0.263 v 0.132 l -0.132,0.132 h 0.395 v 0.263 H 5.795 l -1.317,-0.395 -0.396,0.132 v 0.131 l 1.054,0.395 0.922,-0.131 H 6.19 l 0.131,0.131 0.395,-0.263 1.054,1.054 v -0.133 l -0.526,-0.658 v -0.131 c 0.263,0 0.395,-0.088 0.395,-0.264 v -0.395 l -0.132,-0.131 0.395,-0.132 0.132,0.132 -0.132,0.658 v 0.263 l 1.053,-0.131 h 0.132 l 0.133,0.131 v -0.131 c 0.35,0 0.525,-0.132 0.525,-0.395 l -0.13,-0.132 v -0.132 l 0.263,-0.395 -0.396,-0.526 v -0.132 h 0.396 v 0.132 l 0.132,0.131 h 0.131 l -0.131,0.395 v 0.132 h 0.263 v 0.132 l -0.263,0.395 c 0.24,1.229 0.503,1.844 0.789,1.844 0,-0.329 -0.176,-0.681 -0.526,-1.053 v -0.396 l 0.921,0.131 v -0.658 h 0.264 c 0,0.329 0.22,0.549 0.658,0.658 h 0.133 l 0.13,-0.395 0.133,-0.131 h 0.263 c 0,0.284 0.219,0.504 0.658,0.658 0,-0.263 0.088,-0.395 0.264,-0.395 v 0.263 h 0.263 c 0,-0.351 0.087,-0.526 0.263,-0.526 l 0.132,0.791 h 0.132 c 0,-0.265 0.088,-0.396 0.263,-0.396 h 1.844 l -0.132,-0.132 0.395,-0.79 -0.263,-0.263 0.263,-0.527 h 0.132 l 0.263,0.922 h 0.265 v -0.264 h 0.13 l 0.265,0.264 v 0.263 l -0.265,0.263 h -0.263 v -0.263 h -0.132 v 0.527 c 0.615,0.065 0.923,0.33 0.923,0.789 h 0.132 l 0.131,-0.13 -0.396,-0.791 0.133,-0.395 0.132,0.132 h 0.131 l 0.132,-0.132 h 0.263 l 0.132,0.132 v -0.132 l 0.131,-0.132 0.264,0.264 v 0.263 h -0.132 l -0.132,-0.132 h -0.658 l -0.131,0.395 0.395,-0.131 c 0.35,0 0.526,0.131 0.526,0.396 h 0.263 v -0.528 l 0.395,0.132 0.395,-0.132 -0.395,-0.527 h -0.131 l -0.132,0.132 h -0.132 c 0,-0.176 0.132,-0.263 0.395,-0.263 v -0.264 h 0.395 v 0.264 l -0.131,0.131 c 0.526,0.11 0.791,0.242 0.791,0.395 0,0.176 0.218,0.264 0.658,0.264 0,0.351 0.087,0.526 0.263,0.526 h 0.132 v -0.263 l -0.132,-0.132 h 0.132 l 0.131,-0.131 1.185,1.449 h 0.133 l -0.659,-1.186 v -0.132 l 0.131,-0.131 0.395,0.131 0.395,-0.131 v -0.264 c -0.262,0 -0.395,-0.087 -0.395,-0.263 v -0.527 h 0.265 l -0.132,0.132 c 0.175,0.352 0.395,0.527 0.658,0.527 l -0.131,0.131 0.395,0.79 0.526,0.923 h 0.132 v -0.265 l -0.527,-0.921 0.263,-0.263 h 0.132 l 0.132,0.131 v -0.131 l 0.131,-0.132 v -0.263 h -0.263 l 0.395,-0.79 0.263,0.263 v 0.395 l -0.263,0.263 v 0.132 l 0.132,0.132 0.658,0.131 c 0.263,0 0.396,0.132 0.396,0.395 h 0.132 l 0.131,-0.13 v -0.133 l -0.131,-0.132 c 0,-0.176 0.131,-0.263 0.395,-0.263 v -0.132 l -0.132,-0.131 h 0.395 l 0.131,0.131 0.132,-0.526 h 0.132 v 0.263 c 0,0.35 -0.132,0.527 -0.395,0.527 0,0.33 0.219,0.725 0.658,1.184 h 0.263 v -0.13 c -0.197,0 -0.416,-0.265 -0.658,-0.791 v -0.132 l 0.132,-0.131 0.658,0.131 c 0.528,-0.263 0.791,-0.482 0.791,-0.658 -0.263,-0.132 -0.396,-0.351 -0.396,-0.658 -0.263,0 -0.395,-0.089 -0.395,-0.264 0.263,0 0.395,-0.088 0.395,-0.263 h 0.133 l 0.13,0.527 h -0.13 v 0.131 l 0.13,0.132 0.395,-0.132 v -0.131 h -0.262 v -0.132 c 0.527,0 0.79,-0.132 0.79,-0.395 h 0.921 v 0.132 l -0.658,0.131 v 0.264 l 0.132,0.131 c -0.614,0.329 -0.923,0.68 -0.923,1.054 h 1.054 v -0.132 l -0.394,-0.395 v -0.132 l 0.131,-0.131 c 0.308,0.35 0.614,0.526 0.922,0.526 v 0.132 h -0.395 v 0.263 l 0.395,0.132 c 0,-0.175 0.175,-0.263 0.526,-0.263 v -0.659 c -0.263,0 -0.395,-0.131 -0.395,-0.395 h 0.265 v 0.264 h 0.263 l 0.132,-0.395 -0.265,-0.264 v -0.263 h 1.844 c 0.966,0.614 1.45,1.667 1.45,3.161 l -0.528,-0.132 c -0.374,0.263 -0.812,0.395 -1.316,0.395 v 0.132 c 0,0.24 0.218,0.373 0.658,0.395 0,0.175 -0.175,0.263 -0.527,0.263 l 0.263,0.923 h 0.132 c 0,-0.484 0.263,-0.791 0.79,-0.923 v -0.132 h -0.262 l -0.133,0.132 h -0.132 v -0.132 l 0.132,-0.131 v -0.264 h -0.527 l 0.264,-0.263 h 0.396 l 0.395,0.263 v -0.263 l 0.13,0.132 0.133,-0.132 c 0.175,0 0.306,0.439 0.395,1.318 -0.22,0 -0.352,0.174 -0.395,0.525 h 0.132 l 0.131,0.133 h 0.132 l 0.132,-0.133 1.316,8.825 v 1.185 l -0.921,0.921 h -3.424 c -0.616,0 -1.537,-1.8 -2.766,-5.398 v -0.132 l 0.132,-0.133 -0.265,-0.658 h -0.13 l -0.132,0.132 v -0.132 l 0.262,-0.263 -0.13,-0.132 0.526,-0.395 -0.131,-0.132 0.263,-0.263 v 0.263 l 0.79,0.264 -0.132,-0.659 h -0.132 l -0.131,0.132 h -0.132 v -0.658 l -0.263,-0.263 0.132,-0.133 c -0.726,-1.382 -1.998,-2.348 -3.819,-2.896 l -0.395,0.13 c 0,-0.438 -1.142,-0.658 -3.425,-0.658 h -0.264 l -0.395,0.263 -0.526,-0.395 h -0.263 l -0.132,0.132 -0.133,-0.132 h -0.13 c 0,0.264 -0.089,0.395 -0.265,0.395 h -0.395 v -0.263 h 0.527 v -0.132 h -0.922 l -0.658,0.132 -0.131,-0.132 -0.395,0.264 -0.528,-0.264 -0.658,0.264 v -0.132 h -0.132 l -0.132,0.132 h -0.263 l -0.132,-0.132 -0.131,0.132 h -0.79 c 0,0.439 -0.133,0.659 -0.395,0.659 v -0.396 c -0.528,0 -0.791,-0.132 -0.791,-0.395 h -0.263 l -0.395,0.791 c -0.352,0 -0.527,0.132 -0.527,0.395 h -0.921 v 0.13 h 0.395 c 0,0.441 0.087,0.66 0.263,0.66 l 0.263,0.263 v 0.527 h -0.263 c 0,-0.221 -0.132,-0.44 -0.395,-0.659 -0.286,0 -0.594,0.527 -0.923,1.58 l 0.132,0.133 v 0.263 h -0.263 l 0.131,0.132 -0.131,0.131 0.131,0.132 c -0.176,0.395 -0.263,0.966 -0.263,1.713 v 0.526 l 0.132,0.132 -0.132,0.13 0.263,0.265 v -0.265 c 0.286,0.089 0.461,0.265 0.527,0.528 h -0.263 l -0.132,-0.132 v 0.132 h -0.132 l -0.131,-0.132 h -0.132 l -0.132,0.132 v -0.132 h -0.131 l -0.132,0.132 c 0.263,0.219 0.395,0.439 0.395,0.658 l 0.395,-0.263 -0.395,0.79 v 1.317 h 0.658 l -0.263,0.264 c 0.132,0.35 0.35,0.526 0.658,0.526 v 0.395 l -0.263,0.264 h -0.263 v -0.79 l -0.132,-0.132 h -0.132 l -0.131,0.132 h -0.132 l -0.132,-0.132 v 0.395 l 0.264,0.263 c 0,0.176 -0.132,0.264 -0.395,0.264 v 0.131 c 0,0.176 0.131,0.265 0.395,0.265 v 0.395 l -0.132,0.131 0.132,0.132 v 0.263 l -0.132,0.132 h 0.527 c 0,-0.308 0.218,-0.615 0.659,-0.923 v 0.265 l -0.133,0.131 0.133,0.132 v 0.395 c -0.549,0 -0.944,0.263 -1.186,0.79 l 0.132,0.526 v 0.132 l -0.132,0.133 0.132,0.13 v 0.265 l -0.132,0.13 h 0.132 l -0.132,0.396 v 0.395 h 0.132 v -0.395 c 0.395,0 0.791,0.263 1.186,0.79 v 0.132 h -0.395 l -0.265,-0.264 -0.526,0.264 v 0.131 c 0.263,0 0.395,0.132 0.395,0.395 h 0.131 v -0.263 l 0.528,0.528 v 0.262 h -0.528 l 0.132,0.133 c 0,0.174 -0.132,0.263 -0.395,0.263 v 0.263 h 0.132 l 0.131,-0.131 v 0.526 h 0.132 l 0.528,-0.526 0.131,0.131 h 0.262 v 2.238 h 2.767 c 3.227,0 5.071,-0.966 5.532,-2.897 0.263,-2.458 0.702,-3.687 1.316,-3.687 h 3.424 l 0.923,0.921 v 7.639 l -0.264,0.263 h -1.449 v 7.507 l -0.263,0.264 h -1.318 c -0.196,0 -0.416,-0.879 -0.658,-2.634 -0.658,-2.284 -2.722,-3.424 -6.19,-3.424 h -5.531 v 8.034 l 0.132,0.131 -0.132,0.132 v 8.56 l -0.132,0.132 -0.131,-0.132 h -0.527 v 0.132 c 0.614,0 0.922,0.263 0.922,0.791 l -0.132,0.13 v 1.976 h 8.297 c 2.876,0 4.676,-0.571 5.4,-1.711 l 0.921,1.053 h 0.132 l -0.658,-1.186 c 0.044,-0.351 0.175,-0.527 0.396,-0.527 h 0.13 c 0,0.286 0.22,0.548 0.66,0.79 v -0.13 c -0.352,-0.395 -0.528,-0.704 -0.528,-0.923 l 1.054,-2.766 c 0.372,-2.458 0.68,-3.687 0.922,-3.687 h 1.316 l 0.265,0.264 v 5.663 l -0.132,0.658 0.132,0.396 v 4.214 l -0.265,0.263 H 14.355 l -0.922,0.132 -0.526,-0.132 h -1.976 l -0.658,0.132 -0.132,-0.132 H 10.01 l -0.132,0.132 -0.791,-0.132 H 7.77 l -0.526,0.132 -0.528,-0.132 H 1.185 l -0.922,0.132 v 0.131 c 0.264,0 0.395,0.087 0.395,0.264 v 0.131 l -0.131,0.132 -0.132,-0.132 -0.132,0.132 z m -7.902,-0.132 h 0.132 v 0.263 h -0.132 z m -0.658,-0.395 h 0.132 v 0.263 H -8.56 Z m -7.244,-0.923 h 0.131 l 0.132,0.396 h -0.132 l -0.131,0.132 z m 0.791,-0.395 v -0.263 l 0.13,0.133 0.528,-0.265 h 0.132 l 0.131,0.132 -0.131,0.528 h -0.264 z m 0.658,-0.13 h -0.263 v 0.132 h 0.263 z m -1.053,-0.528 h 0.132 v 0.263 h -0.132 z m 0.395,0 h 0.132 v 0.263 h -0.132 z m 0.79,-0.526 0.131,-0.132 c -0.263,0 -0.395,-0.132 -0.395,-0.395 h -0.263 v 0.263 l 0.132,0.132 c -0.395,0.11 -0.615,0.286 -0.66,0.526 l -0.263,-0.263 v -0.526 l 0.263,-0.264 h 0.132 l 0.133,0.132 v -0.132 l -0.265,-0.263 0.132,-0.395 c 0.791,0.527 1.186,0.922 1.186,1.185 h 0.263 c -0.11,0.439 -0.241,0.658 -0.395,0.658 h -0.131 z m 11.589,0 h 0.132 v 0.263 h -0.132 z m -0.395,-0.659 h 0.132 v -0.131 l -0.132,-0.132 v -0.263 h 0.395 v -0.132 l -0.132,-0.133 v -0.13 l 0.395,-0.133 h 0.132 v 0.263 h -0.263 l 0.131,0.396 c 0,0.175 -0.131,0.264 -0.395,0.264 v 0.131 c 0.351,0 0.527,0.087 0.527,0.264 l -0.263,0.263 h -0.395 z m 0.922,-0.791 h 0.526 l -0.13,0.133 0.13,0.132 c 0,0.263 -0.13,0.395 -0.395,0.395 v 0.131 h 0.658 v 0.264 c -0.263,0 -0.393,0.087 -0.393,0.263 h -0.396 z m -5.795,0.66 h 0.132 l 0.131,0.395 H -7.77 l -0.132,0.131 z m 16.594,0.395 -2.371,-3.819 H 6.19 v 0.13 l 2.107,3.689 z m -22.652,-0.264 h 0.132 v 0.263 h -0.132 z m 6.849,-0.526 v -0.265 l 0.13,0.133 0.528,-0.263 h 0.132 l 0.131,0.13 -0.131,0.791 h -0.132 c 0,-0.352 -0.22,-0.526 -0.658,-0.526 m 0.658,-0.132 h -0.263 v 0.132 h 0.263 z m 35.691,0 -0.265,-0.263 v 0.263 z m -44.251,-0.263 h 0.132 v 0.263 h -0.132 z m 23.968,-0.395 0.66,0.525 h 0.13 C 9.307,-15.387 9.087,-15.826 9.087,-16.199 H 8.955 v 0.791 l -0.79,-0.659 v 0.131 c 0.351,0.395 0.527,0.747 0.527,1.053 0.176,0 0.263,-0.175 0.263,-0.525 m 19.623,0.525 v -0.13 l -0.526,-1.186 h -0.264 l 0.659,1.316 z m -43.461,-0.525 0.133,-0.133 h 0.132 l 0.131,0.133 0.132,-0.659 h 0.132 l 0.131,0.131 c 0,0.482 -0.22,0.79 -0.658,0.923 h -0.133 z m 7.376,0.13 h 0.132 v 0.263 h -0.132 z m 0.396,0 h 0.132 v 0.263 h -0.132 z m 17.384,0.132 -0.132,-0.527 H 10.01 v 0.132 c 0,0.263 0.087,0.395 0.263,0.395 m 16.989,0 -0.132,-0.527 h -0.131 v 0.132 c 0,0.263 0.087,0.395 0.263,0.395 m -16.331,-0.132 v -0.263 l -0.263,0.263 z m -17.252,-0.526 0.131,-0.132 c -0.263,0 -0.396,-0.131 -0.396,-0.395 h -0.263 v 0.264 l 0.133,0.131 c -0.395,0.11 -0.615,0.286 -0.658,0.528 l -0.265,-0.265 v -0.526 l 0.265,-0.263 h 0.13 l 0.133,0.131 v -0.131 l -0.263,-0.264 0.13,-0.395 c 0.791,0.527 1.186,0.922 1.186,1.185 h 0.263 c -0.11,0.439 -0.241,0.658 -0.395,0.658 h -0.131 z m 16.857,0.263 h 0.132 l -0.264,-0.263 H 10.273 Z M 5.531,-15.936 H 5.136 v 0.132 h 0.395 z m -11.589,-0.526 h 0.132 v 0.263 h -0.132 z m -1.053,-0.922 h 0.132 v 0.263 h -0.132 z m 0.13,-0.395 0.132,-0.133 h 0.133 l 0.13,0.133 0.133,-0.659 h 0.132 l 0.131,0.131 c 0,0.484 -0.218,0.79 -0.659,0.923 h -0.132 z m 0.66,-3.82 h 0.526 l -0.131,-0.131 v -0.132 l 0.131,-0.132 h -0.263 c 0,0.264 -0.132,0.395 -0.395,0.395 l -0.133,-0.395 v -0.131 l 0.133,-0.132 v -0.132 l 0.395,0.132 h 0.132 l -0.132,-0.132 0.132,-0.395 h 0.263 v 0.132 l 0.658,0.658 -0.79,-0.395 v 0.132 c 0,0.176 0.132,0.263 0.395,0.263 v 0.132 l -0.263,0.263 0.263,0.395 h -0.395 v -0.263 h -0.131 v 0.263 h -0.395 z m 1.448,0 v -0.263 h 0.395 v -0.132 l -0.527,-0.131 v -0.264 l 0.264,-0.263 h 0.263 v 0.132 l 0.131,0.131 h 0.132 l -0.263,0.79 0.131,0.132 z m -6.321,-0.395 h 0.263 v 0.132 h -0.263 z m 5.926,-0.79 h 0.263 l -0.263,0.264 z m -0.395,-0.263 h 0.132 v 0.263 h -0.132 z m -5.663,-0.133 h 0.263 l -0.263,0.265 z m 4.215,-0.79 h 0.132 v 0.263 h -0.132 z m 8.429,-2.765 H 1.45 v 0.263 H 1.318 Z m -15.41,-4.742 h 0.263 v 0.263 h -0.263 z m 7.902,0 -0.131,-0.13 0.131,-0.66 h 0.132 v 0.132 l 0.395,0.395 v 0.133 l -0.132,0.13 -0.131,-0.13 -0.132,0.13 z m -8.033,-0.395 h 0.132 v 0.263 h -0.132 z m -0.66,-0.395 h 0.132 v 0.263 h -0.132 z m 5.928,-2.502 h 0.132 v 0.263 h -0.132 z m -0.395,-0.658 h 0.13 v -0.132 l -0.13,-0.132 c 0,-0.176 0.13,-0.263 0.395,-0.263 v -0.132 l -0.132,-0.131 v -0.132 l 0.395,-0.131 v 0.131 l 0.132,0.132 h -0.264 l 0.132,0.395 c 0,0.176 -0.132,0.263 -0.395,0.263 v 0.132 c 0.351,0 0.527,0.087 0.527,0.263 l -0.264,0.263 H -9.22 Z m 0.921,-0.79 h 0.527 l -0.132,0.131 0.132,0.132 c 0,0.263 -0.132,0.395 -0.395,0.395 v 0.132 h 0.658 v 0.263 c -0.263,0 -0.395,0.087 -0.395,0.263 h -0.395 z m 20.018,-2.108 v -0.131 l -0.263,-0.264 v 0.395 z m 0.66,-0.395 h -0.132 v 0.263 h 0.132 z M 4.61,-39.246 H 4.347 v 0.132 H 4.61 Z m 0,-0.263 -0.395,-0.395 v 0.395 z m -0.923,-0.265 v -0.263 H 3.292 v 0.133 z m 8.825,-0.13 0.263,-0.265 h 0.262 v 0.395 l -0.525,0.133 z m -0.791,-0.395 h -0.263 v 0.262 z m -7.902,0.13 h 0.133 v -0.13 l -0.265,-0.265 -0.263,0.265 z m 0.659,-0.79 H 4.215 v -0.263 H 4.61 v -0.921 H 4.478 l -0.263,0.263 v 0.263 l 0.132,0.132 H 3.819 l 0.263,0.921 z m -0.659,0.132 H 3.556 v 0.132 h 0.263 z m -0.132,-0.527 0.132,-0.395 -0.132,-0.394 c -0.219,0.263 -0.439,0.394 -0.658,0.394 v 0.132 c 0.263,0 0.395,0.087 0.395,0.263 z m 8.825,-1.844 h 0.263 v 0.658 h -0.263 z m -9.351,-0.131 v -0.527 h 0.395 l 0.131,0.132 0.132,-0.132 v 0.263 l -0.132,0.132 0.395,0.263 -0.395,0.395 c 0,-0.351 -0.176,-0.526 -0.526,-0.526 m 3.16,0.263 H 5.794 v 0.132 h 0.527 z m -2.239,-0.395 h 0.265 l -0.265,0.263 z m 1.449,-0.658 H 5.268 l -0.132,0.658 c 0.153,0 0.285,-0.219 0.395,-0.658 m -2.634,0 h 0.132 v 0.395 H 2.897 Z m 3.293,0.263 h 0.131 v -0.132 l -0.79,-1.449 H 5.136 Z M 2.897,-44.383 H 3.16 v 0.132 H 2.897 Z m 2.503,0 v -0.263 H 5.136 Z m 4.478,-0.395 -0.263,-0.263 v 0.263 z M 3.161,-45.172 H 3.029 l -0.132,0.131 H 2.766 L 3.161,-45.7 h 0.263 v 0.133 c 0,0.263 0.176,0.395 0.528,0.395 v 0.263 l -0.66,0.131 z m 2.107,-0.395 -0.263,-0.791 -0.265,0.263 c 0.176,0 0.265,0.176 0.265,0.528 z m 0.922,0 v -0.396 L 5.926,-46.227 H 5.795 v 0.132 z m 4.346,0 h 0.132 l -0.264,-0.265 H 10.273 Z M 7.244,-45.832 H 6.981 v 0.132 h 0.263 z m 0.921,0 -0.131,-0.395 H 7.902 v 0.264 l 0.132,0.131 z m 0.659,-0.131 v -0.132 L 8.429,-46.49 v 0.263 l 0.263,0.264 z m 0.791,0 v -0.79 H 9.35 l -0.13,0.131 0.262,0.659 z m 0.526,0 v -0.264 L 9.878,-46.49 v 0.263 z m -3.16,-0.264 H 6.718 v 0.132 H 6.981 Z M 6.849,-46.49 H 6.586 v 0.132 h 0.263 z m 0.79,0.132 0.131,-0.527 v -0.132 H 7.639 l -0.132,0.395 v 0.264 z m -4.742,-0.395 h 0.395 v 0.132 H 2.897 Z m 6.19,-0.264 H 8.955 v 0.263 H 9.087 Z M 3.556,-47.28 h 0.263 v 0.263 H 3.556 Z m 8.428,-0.263 0.265,-0.265 h 0.263 v 0.133 l -0.263,0.395 z m -8.56,-0.132 H 3.292 l -0.131,0.132 v -0.132 l -0.132,-0.133 h 0.263 v -0.13 c -0.263,0 -0.395,-0.089 -0.395,-0.263 v -0.132 c 0.176,0 0.264,-0.133 0.264,-0.396 h 0.263 l 0.132,0.133 v -0.66 h 0.263 l 0.133,0.132 -0.265,0.263 0.132,0.132 -0.263,0.263 0.526,0.791 -0.263,0.263 z m 9.088,-0.921 h 0.263 v 0.13 l -0.396,0.395 h -0.13 z m -9.483,-0.923 h 0.263 v 0.132 H 3.029 Z m 8.955,-0.132 h 0.66 v 0.264 l -0.132,-0.132 h -0.133 l -0.13,0.132 z m 18.307,0.132 0.263,-0.527 -0.526,-0.263 v 0.132 l 0.131,0.658 z M 5.531,-49.651 5.4,-50.309 H 5.005 Z m 0.922,0 h 0.133 c -0.199,-0.526 -0.375,-0.791 -0.528,-0.791 v 0.396 z m 1.976,0 v -0.263 H 7.902 v 0.132 z m 1.844,0 h 0.131 l -0.659,-1.316 h -0.13 v 0.132 c 0,0.439 0.218,0.834 0.658,1.184 m -7.244,-0.131 v -0.264 h 0.395 l 0.263,0.264 v 0.131 z m 4.478,-0.132 c 0,-0.197 0.219,-0.461 0.658,-0.79 v 0.395 h 0.264 l 0.131,-0.133 -0.263,-0.393 v -0.395 h 0.395 l 0.395,0.263 v -0.263 l -1.053,-0.396 v -0.132 l 0.131,-0.132 -0.395,-0.131 -0.263,0.526 0.132,0.395 v 0.133 H 7.507 L 7.374,-51.1 v 0.265 H 7.111 V -51.1 h -0.13 v 0.133 l 0.393,1.053 z m 3.424,-0.132 0.132,-0.131 -0.527,-1.053 h -0.132 v 0.13 l 0.395,1.054 z M 9.35,-50.572 H 9.218 v 0.263 H 9.35 Z m -4.345,0 H 5.136 L 4.873,-51.23 H 4.74 v 0.263 c 0,0.263 0.089,0.395 0.265,0.395 m 0.921,0 v -0.395 H 5.663 v 0.132 z m 6.323,-0.263 0.13,-0.132 -0.263,-0.263 v -0.133 l 0.791,0.528 v 0.263 l -0.658,0.13 z m 17.647,0.263 0.132,-0.395 h -0.132 l -0.132,0.132 v 0.263 z M 9.35,-50.967 H 9.218 v 0.263 H 9.35 Z m -1.448,0 h 0.132 v 0.263 H 7.902 Z m 22.52,-0.133 h 0.132 v -0.263 H 30.159 Z M 2.766,-51.23 h 0.263 v 0.132 H 2.766 Z m 0.395,-0.396 h 0.263 l -0.263,0.263 z m 27.261,0.131 v -0.131 l -0.263,-0.395 v -0.132 h 0.263 v -0.132 l -0.263,-0.263 v 0.395 l -0.395,-0.263 v 0.395 z m 0.79,0 -0.131,-0.526 h -0.132 v 0.526 z M 3.687,-52.153 v -0.132 l 0.132,-0.131 0.396,0.131 v 0.79 H 3.952 Z m 8.166,0.395 0.263,-0.263 h 0.133 v 0.131 l -0.265,0.264 h -0.131 z m 18.964,-0.395 h -0.132 v 0.263 h 0.132 z m 3.556,0.132 0.133,-0.395 -0.133,-0.527 h -0.132 l -0.13,0.658 h 0.13 v 0.264 z M 8.692,-52.153 8.824,-52.285 H 9.22 l 0.13,0.132 v -0.395 H 8.824 v -0.263 h 0.131 l 0.527,-1.318 v -0.13 c -0.351,-0.046 -0.527,-0.178 -0.527,-0.396 -0.263,0 -0.439,0.439 -0.526,1.317 l 0.131,1.185 z m 3.557,0.132 -0.133,-0.132 0.133,-0.132 v -0.131 l -0.133,-0.132 c 0.263,0 0.396,-0.087 0.396,-0.263 h 0.132 v 0.263 h 0.263 l -0.132,-0.132 v -0.131 l 0.132,-0.132 h 0.13 l 0.265,0.263 -0.132,0.132 v 0.263 h -0.395 l -0.131,-0.131 -0.265,0.395 z m 19.886,-0.132 v -0.395 h -0.263 l 0.13,0.395 z M 4.082,-52.68 h 0.263 v 0.132 H 4.082 Z m 24.891,0.132 -0.13,-0.132 0.263,-0.395 0.395,0.132 -0.395,0.395 z m 3.029,-0.263 h -0.263 v 0.132 h 0.263 z M 5.663,-53.206 v -0.923 c -0.176,0 -0.308,0.265 -0.395,0.791 z m 3.029,0 h 0.263 v 0.132 H 8.692 Z m 3.424,-0.395 h 0.133 c 0.438,0 0.701,0.13 0.788,0.395 v 0.131 h -0.13 z m -6.058,0.13 v -0.263 l -0.263,0.263 z m 28.843,0 c 0,-0.35 0.174,-0.526 0.526,-0.526 v -0.132 c -0.352,0 -0.526,-0.219 -0.526,-0.658 h -0.132 v 1.316 z m -32.135,-0.921 0.395,-0.395 0.263,0.263 v 0.265 l -0.395,0.395 H 2.766 Z m 31.87,0.395 v -0.132 l -0.13,-0.13 -0.528,0.13 v 0.132 z M 3.292,-54.392 H 3.029 v 0.132 h 0.263 z m 31.214,-0.658 h -0.263 v 0.263 h 0.263 z m -0.66,-0.264 h -0.132 v 0.395 h 0.132 z m 0.395,0 h -0.263 v 0.132 h 0.263 z m -31.87,-0.131 h 0.263 v 0.263 z m 6.716,-2.108 c 0.373,1.318 0.636,1.976 0.791,1.976 h 0.263 l 0.132,-0.132 -0.132,-1.054 c 0,-0.548 -0.263,-0.9 -0.791,-1.053 v -0.132 l 0.132,-0.131 v -0.132 L 9.35,-58.343 H 9.482 L 9.35,-59.397 H 9.22 c 0,0.791 -0.176,1.186 -0.528,1.186 0.11,0.439 0.242,0.658 0.395,0.658 m 25.024,1.844 h -0.263 v 0.132 h 0.263 z M 13.037,-55.84 h 0.132 v 0.263 h -0.132 z m 0.396,-0.132 h 0.263 v 0.395 h -0.263 z m 1.975,0.132 v -0.658 h 0.133 l 0.132,0.658 v 0.263 z M 7.902,-55.972 H 7.507 v 0.132 h 0.395 z m 9.087,-0.133 v -0.393 c 0.176,0.043 0.352,0.263 0.528,0.658 v 0.131 h -0.133 z m 16.989,0.265 v -0.265 H 33.715 Z M 1.053,-56.105 H 0.79 v 0.132 h 0.263 z m 14.093,-0.263 v 0.263 l -0.263,0.265 H 14.75 c 0.133,-0.352 0.263,-0.528 0.396,-0.528 m 7.111,0.528 -0.132,-0.132 0.264,-0.263 h 0.131 l 0.132,0.13 -0.263,0.265 z M 0.263,-56.105 0.395,-56.498 0,-56.63 l -0.263,0.395 z m 2.108,0 v -0.13 l -0.132,-0.133 -0.263,0.263 z m 4.478,-0.13 H 6.586 v 0.132 h 0.263 z m 11.326,-0.133 h 0.132 l 0.131,0.133 v -0.395 h 0.264 l -0.132,0.525 h -0.658 z m 5.135,-0.395 0.265,0.265 v 0.13 l -0.265,0.263 h -0.526 z m 2.766,0.265 v -0.132 h 0.133 l 0.395,0.395 h -0.265 z m 8.035,-0.528 h -0.132 v 0.527 h 0.132 z M 6.849,-56.893 H 6.717 v 0.263 h 0.132 z m 1.185,-0.133 H 7.902 v 0.263 h 0.132 z m 6.058,0.133 h 0.132 v 0.263 h -0.132 z m 2.634,0.13 -0.132,-0.13 0.263,-0.265 v 0.395 z m 11.326,-0.263 h 0.131 c -0.615,-1.164 -1.01,-1.777 -1.184,-1.843 0.439,1.229 0.789,1.843 1.053,1.843 m 6.717,-0.263 v -0.132 h -0.263 l -0.133,0.132 v 0.131 l 0.133,0.132 z m -32.135,0 H 2.371 v 0.132 h 0.263 z m 15.804,0 h 0.395 l 0.263,0.263 H 18.702 Z M 8.429,-57.421 H 8.034 v 0.132 h 0.395 z m -3.556,-0.132 v -0.526 H 4.74 l -0.13,0.395 v 0.131 z M 4.478,-57.948 H 4.346 v 0.263 h 0.132 z m 20.94,0.132 v -0.132 l -0.264,-0.263 v 0.132 z M 8.429,-58.211 H 8.297 v 0.263 h 0.132 z m 4.478,-0.132 0.13,-0.131 -0.13,-0.66 h -0.132 v 0.791 z m 20.544,0 v -0.263 h -0.263 z m -21.73,-0.131 h 0.132 c -0.374,-0.79 -0.637,-1.186 -0.79,-1.186 0.174,0.791 0.395,1.186 0.658,1.186 m 2.239,0 v -0.395 l -0.263,-0.265 h -0.132 l 0.132,0.66 z m 4.873,0 -0.131,-0.527 H 18.57 v 0.527 z m 3.556,0 h 0.131 c 0,-0.352 -0.176,-0.615 -0.526,-0.79 0,0.438 0.131,0.701 0.395,0.79 m 1.712,0 -0.263,-0.79 h -0.263 c 0,0.35 0.174,0.614 0.526,0.79 M 8.165,-58.739 H 7.902 v 0.132 h 0.263 z m 12.248,0.133 h 0.133 l -0.265,-0.263 H 20.15 Z m 8.56,0 0.133,-0.133 -0.263,-0.658 h -0.265 l 0.265,0.791 z m 3.425,0 v -0.528 l -0.263,-0.526 h -0.263 l 0.395,1.054 z m -17.385,-0.133 c -0.13,-0.35 -0.263,-0.525 -0.395,-0.525 h -0.131 v 0.13 c 0,0.133 0.175,0.265 0.526,0.395 m 4.873,0 v -0.13 l -0.131,-0.528 h -0.132 l -0.132,0.133 0.264,0.525 z m 1.45,0 h 0.131 c -0.439,-0.482 -0.658,-0.833 -0.658,-1.053 h -0.133 v 0.395 z m 4.74,0 h 0.133 l -0.66,-1.053 h -0.131 v 0.395 z m 7.244,-0.13 -0.263,-0.923 h -0.264 l 0.132,1.053 z m -6.453,0 0.132,-0.132 -0.264,-0.263 v 0.395 z m -9.483,-0.132 v -0.263 l -0.263,-0.263 h -0.132 v 0.13 z m 16.331,-0.133 h -0.263 v 0.132 h 0.263 z m -2.503,0 v -0.393 h -0.263 l 0.132,0.393 z m 3.029,-0.13 v -0.133 c -0.263,0 -0.395,-0.087 -0.395,-0.263 h -0.131 v 0.133 l 0.131,0.393 z m -21.466,0 -0.263,-0.396 h -0.263 v 0.133 l 0.263,0.263 z m 4.346,-0.528 h -0.263 v 0.132 h 0.263 z m -0.264,-0.395 h -0.132 v 0.263 h 0.132 z m 15.41,0 h -0.132 v 0.263 h 0.132 z m 1.711,0 -0.263,-0.526 h -0.132 v 0.263 l -0.526,-0.395 v 0.79 h 0.131 c 0,-0.263 0.087,-0.395 0.263,-0.395 l 0.132,0.527 z M 15.804,-60.45 h 0.395 l -0.263,0.263 h -0.132 z m 16.198,0 h -0.263 v 0.132 h 0.263 z m 0.265,-0.132 h -0.132 v 0.263 h 0.132 z m -18.175,-0.131 h 0.263 v 0.263 z m 1.712,-0.395 h 0.132 v 0.395 h -0.132 z m 4.742,0.131 h 0.263 v -0.131 l -0.133,-0.132 v -0.132 c 0.176,0 0.265,0.132 0.265,0.395 h 0.263 l -0.263,0.264 h -0.395 z m 5.53,0 v -0.263 h -0.262 v -0.132 h 0.395 c 0,0.219 0.13,0.438 0.395,0.659 h -0.395 l -0.133,-0.132 -0.132,0.132 h -0.263 c 0,-0.176 0.133,-0.264 0.395,-0.264 m -4.346,-0.263 0.132,-0.132 0.263,0.264 -0.263,0.263 H 21.73 Z m -6.98,-0.132 h 0.791 v 0.264 h -0.528 z m 1.186,0.132 h 0.263 v 0.132 h -0.263 z m 11.326,0 v -0.395 h 0.131 v 0.263 h 0.264 v -0.263 h 0.131 l 0.132,0.395 v 0.132 z m -15.146,-0.395 h 0.263 v 0.395 h -0.263 z m 13.17,0.132 v -0.132 h 0.395 l -0.132,0.395 z M 8.56,-61.635 h 0.263 v 0.263 H 8.56 Z m 9.482,0 h 0.263 v 0.263 h -0.263 z m 0.66,0 h 0.789 v 0.263 l -0.131,-0.131 h -0.132 l -0.132,0.131 h -0.394 z m 5.663,0 h 0.132 v 0.263 h -0.132 z m 10.157,19.557 h 0.263 v 0.132 h -0.263 z m -0.132,-1.449 0.264,-0.263 v 0.395 H 34.39 Z m -3.16,-12.642 h 0.263 v 0.132 H 31.23 Z m 1.712,-0.132 h 0.132 v 0.263 h -0.132 z m -1.054,-0.133 0.132,-0.13 h -0.132 l 0.263,-0.265 v 0.66 h -0.263 z m 0.263,-0.921 h 0.263 v 0.263 h -0.263 z m -0.395,-0.395 h 0.527 l -0.263,0.263 z m -1.184,-2.108 0.526,0.132 v 0.133 h -0.132 c -0.263,0 -0.394,-0.089 -0.394,-0.265 m 1.184,0.132 h 0.263 v 0.132 h -0.263 z m -0.658,-0.658 h 0.263 v 0.263 z m -0.526,-0.132 h 0.263 v 0.263 z m 0.394,-1.448 v 0.262 h -0.263 z m -0.789,-0.133 0.263,0.265 h -0.263 z m 8.955,0 h 0.263 v 0.263 h -0.263 z m -9.087,-0.395 h 0.395 l -0.263,0.265 h -0.132 z m 11.194,-0.658 h 0.263 v 0.263 h -0.263 z m -11.194,-0.79 v -0.131 l 0.263,0.263 v 0.132 z m -0.658,-0.395 h 0.132 v 0.263 h -0.132 z m 0.13,-0.396 h 0.265 v 0.133 l -0.265,0.263 z m 1.449,-4.345 v 0.263 h -0.263 z"
             style="fill:#231f20;fill-opacity:1;fill-rule:nonzero;stroke:none"
             id="path22" /></g><g
           id="g24"
           transform="translate(99.1786,70.6749)"><path
             d="m 0,0 h -1.669 -0.147 c -0.936,0 -1.406,-0.317 -1.406,-0.951 0,-0.596 0.311,-0.894 0.931,-0.894 h 1.425 c 1.241,0 1.861,-0.341 1.861,-1.025 0,-0.547 -0.341,-0.879 -1.023,-0.997 -0.174,-0.039 -0.729,-0.057 -1.666,-0.057 h -5.903 c -3.409,0 -5.114,-1.778 -5.114,-5.332 0,-1.542 0.391,-2.855 1.171,-3.938 0.781,-1.084 1.718,-1.625 2.813,-1.625 0.507,0 0.936,0.169 1.287,0.512 0.352,0.341 0.529,0.765 0.529,1.274 0,0.429 -0.128,0.785 -0.382,1.069 -0.253,0.282 -0.576,0.424 -0.966,0.424 -0.468,0 -0.801,-0.137 -0.997,-0.41 -0.116,-0.176 -0.214,-0.264 -0.292,-0.264 -0.215,0 -0.419,0.147 -0.615,0.441 -0.488,0.76 -0.733,1.581 -0.733,2.46 0,0.995 0.23,1.772 0.689,2.328 0.458,0.557 1.088,0.834 1.889,0.834 0.841,0 1.416,-0.248 1.728,-0.746 0.313,-0.499 0.556,-1.568 0.733,-3.207 0.137,-1.152 0.248,-1.919 0.336,-2.299 0.088,-0.382 0.279,-0.835 0.571,-1.362 0.762,-1.387 1.953,-2.079 3.573,-2.079 1.308,0 2.354,0.473 3.134,1.419 0.782,0.947 1.172,2.211 1.172,3.794 0,2.127 -0.733,3.69 -2.196,4.686 1.386,0.37 2.078,1.357 2.078,2.958 C 2.811,-1.034 1.875,-0.039 0,0 m -0.073,-7.396 c 0.713,-0.75 1.068,-1.782 1.068,-3.088 0,-0.919 -0.214,-1.647 -0.644,-2.183 -0.429,-0.537 -1.015,-0.805 -1.757,-0.805 -1.425,0 -2.245,1.108 -2.461,3.325 -0.116,1.224 -0.253,2.076 -0.409,2.552 -0.155,0.477 -0.429,0.928 -0.819,1.356 h 2.078 c 1.25,-0.02 2.231,-0.405 2.944,-1.157 M -12.214,4.276 c 0,-0.019 0.026,-0.284 0.074,-0.791 0.049,-0.235 0.073,-0.507 0.073,-0.821 l -0.117,-1.083 c -0.018,-0.078 -0.03,-0.175 -0.03,-0.292 0,-0.88 0.323,-1.318 0.968,-1.318 0.625,0 0.936,0.357 0.936,1.073 0,0.14 -0.024,0.343 -0.073,0.612 -0.048,0.268 -0.074,0.472 -0.074,0.612 0,0.318 0.123,0.542 0.367,0.67 0.245,0.129 0.699,0.214 1.363,0.255 h 1.024 3.544 3.252 C 0.225,3.172 0.791,2.863 0.791,2.268 0.791,2.008 0.762,1.746 0.703,1.477 0.644,1.209 0.615,1.025 0.615,0.925 c 0,-0.636 0.313,-0.954 0.937,-0.954 0.664,0 0.996,0.409 0.996,1.23 0,0.117 -0.048,0.605 -0.146,1.463 -0.079,0.684 -0.118,1.231 -0.118,1.642 0,0.527 0.03,1.005 0.088,1.434 C 2.49,6.6 2.548,7.107 2.548,7.264 2.548,8.044 2.23,8.435 1.596,8.435 0.943,8.435 0.615,8.132 0.615,7.526 0.615,7.352 0.649,7.127 0.718,6.853 0.786,6.58 0.821,6.365 0.821,6.21 0.821,5.896 0.664,5.681 0.351,5.565 0.039,5.448 -0.547,5.389 -1.406,5.389 h -3.895 c -1.835,0 -3.134,0.233 -3.896,0.7 -1.113,0.68 -1.669,1.8 -1.669,3.356 0,0.816 0.225,1.545 0.674,2.188 0.409,0.582 0.985,0.961 1.727,1.137 0.392,0.096 1.103,0.145 2.139,0.145 h 2.226 1.786 1.493 c 1.075,-0.039 1.612,-0.298 1.612,-0.776 0,-0.1 -0.039,-0.338 -0.117,-0.717 -0.039,-0.199 -0.059,-0.378 -0.059,-0.536 0,-0.677 0.304,-1.017 0.907,-1.017 0.685,0 1.026,0.392 1.026,1.172 0,0.058 -0.058,0.576 -0.176,1.553 -0.039,0.331 -0.058,0.75 -0.058,1.26 0,0.546 0.039,1.132 0.117,1.757 0.078,0.625 0.117,1.073 0.117,1.347 0,0.332 -0.097,0.615 -0.293,0.849 -0.194,0.235 -0.439,0.352 -0.733,0.352 -0.253,0 -0.468,-0.093 -0.643,-0.279 -0.176,-0.186 -0.264,-0.404 -0.264,-0.659 0,-0.117 0.025,-0.318 0.074,-0.6 0.048,-0.283 0.073,-0.513 0.073,-0.689 0,-0.429 -0.333,-0.693 -0.997,-0.79 -0.155,-0.019 -0.653,-0.029 -1.493,-0.029 h -5.565 c -1.074,0 -1.942,-0.137 -2.606,-0.411 -0.801,-0.331 -1.47,-0.966 -2.007,-1.902 -0.536,-0.939 -0.805,-1.934 -0.805,-2.988 0,-1.953 0.742,-3.516 2.227,-4.687 h -0.836 c -0.595,0 -0.894,-0.283 -0.894,-0.849 m 1.627,16.518 c 1.416,-1.191 3.304,-1.786 5.666,-1.786 2.343,0 4.237,0.603 5.683,1.811 1.445,1.207 2.167,2.804 2.167,4.79 0,1.968 -0.694,3.467 -2.079,4.498 h 0.498 0.145 c 0.703,0 1.055,0.264 1.055,0.791 0,0.177 -0.029,0.382 -0.088,0.615 -0.039,0.39 -0.058,0.616 -0.058,0.674 0,0.194 0.024,0.493 0.073,0.893 0.049,0.401 0.073,0.698 0.073,0.894 0,0.879 -0.332,1.318 -0.996,1.318 -0.645,0 -0.966,-0.369 -0.966,-1.103 0,-0.12 0.019,-0.339 0.058,-0.657 0.04,-0.139 0.059,-0.338 0.059,-0.596 0,-0.378 -0.156,-0.617 -0.47,-0.716 -0.313,-0.1 -1.114,-0.16 -2.405,-0.179 h -4.899 -2.875 c -0.507,0 -1.251,0.019 -2.229,0.058 -1.388,0.059 -2.142,0.088 -2.259,0.088 -0.978,0.02 -1.497,0.039 -1.555,0.059 h -0.323 c -0.782,0 -1.173,-0.274 -1.173,-0.821 0,-0.174 0.024,-0.429 0.073,-0.76 0.049,-0.333 0.073,-0.586 0.073,-0.762 0,-0.019 -0.029,-0.342 -0.088,-0.967 -0.039,-0.41 -0.058,-0.694 -0.058,-0.849 0,-0.977 0.323,-1.465 0.967,-1.465 0.625,0 0.937,0.362 0.937,1.083 0,0.157 -0.03,0.377 -0.088,0.66 -0.059,0.283 -0.089,0.502 -0.089,0.659 0,0.448 0.304,0.723 0.909,0.82 0.176,0.04 0.654,0.059 1.434,0.059 h 2.958 c -1.502,-0.958 -2.254,-2.402 -2.254,-4.335 0,-1.992 0.708,-3.583 2.124,-4.774 m 10.66,7.752 c 0.616,-0.707 0.922,-1.593 0.922,-2.653 0,-1.397 -0.532,-2.498 -1.595,-3.304 -1.064,-0.806 -2.524,-1.209 -4.38,-1.209 -1.796,0 -3.21,0.388 -4.247,1.165 -1.034,0.776 -1.551,1.853 -1.551,3.229 0,1.023 0.321,1.927 0.966,2.713 0.548,0.669 1.308,1.091 2.286,1.268 0.468,0.099 1.357,0.148 2.664,0.148 1.016,0 1.845,-0.039 2.49,-0.119 1.015,-0.117 1.83,-0.53 2.445,-1.238"
             style="fill:#231f20;fill-opacity:1;fill-rule:nonzero;stroke:none"
             id="path26" /></g><g
           id="g28"
           transform="translate(55.5922,83.1919)"><path
             d="M 0,0 C -0.007,0.138 -0.015,0.305 -0.017,0.359 0.019,-0.4 -0.001,0.019 0,0"
             style="fill:#231f20;fill-opacity:1;fill-rule:nonzero;stroke:none"
             id="path30" /></g><g
           id="g32"
           transform="translate(56.2256,75.7319)"><path
             d="M 0,0 -0.021,0.131 0.144,-0.962 Z"
             style="fill:#231f20;fill-opacity:1;fill-rule:nonzero;stroke:none"
             id="path34" /></g><g
           id="g36"
           transform="translate(57.719,68.886)"><path
             d="M 0,0 C -0.38,1.53 -0.611,2.46 -0.914,3.68 L -0.96,3.881 -1.11,4.425 C -0.744,2.967 -0.276,1.101 0,0"
             style="fill:#231f20;fill-opacity:1;fill-rule:nonzero;stroke:none"
             id="path38" /></g><g
           id="g40"
           transform="translate(58.8634,65.3158)"><path
             d="M 0,0 C -0.056,0.227 0.277,-0.763 -0.276,0.831 -0.254,0.757 -0.244,0.727 -0.23,0.679 -0.181,0.535 -0.115,0.339 0,0"
             style="fill:#231f20;fill-opacity:1;fill-rule:nonzero;stroke:none"
             id="path42" /></g><g
           id="g44"
           transform="translate(58.6339,65.9952)"><path
             d="M 0,0 C -0.239,0.702 0.142,-0.465 0,0"
             style="fill:#231f20;fill-opacity:1;fill-rule:nonzero;stroke:none"
             id="path46" /></g><g
           id="g48"
           transform="translate(59.9008,62.8174)"><path
             d="M 0,0 -0.42,0.882 C -0.35,0.691 0.002,-0.106 -0.14,0.185 0.279,-0.727 0.212,-0.53 0,0"
             style="fill:#231f20;fill-opacity:1;fill-rule:nonzero;stroke:none"
             id="path50" /></g><g
           id="g52"
           transform="translate(60.3275,61.9944)"><path
             d="M 0,0 -0.218,0.457 C -0.187,0.373 -0.135,0.25 0,0"
             style="fill:#231f20;fill-opacity:1;fill-rule:nonzero;stroke:none"
             id="path54" /></g><g
           id="g56"
           transform="translate(59.6477,63.4203)"><path
             d="M 0,0 0.462,-0.969 C 0.414,-0.835 0.426,-0.813 0.251,-0.523 0.305,-0.595 0.2,-0.41 0,0"
             style="fill:#231f20;fill-opacity:1;fill-rule:nonzero;stroke:none"
             id="path58" /></g><g
           id="g60"
           transform="translate(59.4054,63.9772)"><path
             d="M 0,0 C -0.229,0.497 -0.439,1.174 -0.077,0.266 -0.713,2.02 -0.686,1.735 0,0"
             style="fill:#231f20;fill-opacity:1;fill-rule:nonzero;stroke:none"
             id="path62" /></g><g
           id="g64"
           transform="translate(57.8716,68.5588)"><path
             d="m 0,0 c 0,0 -0.229,0.692 -0.211,0.697 l -0.163,0.61 C -0.312,0.997 -0.021,-0.054 0,0"
             style="fill:#231f20;fill-opacity:1;fill-rule:nonzero;stroke:none"
             id="path66" /></g><g
           id="g68"
           transform="translate(62.6,57.3467)"><path
             d="M 0,0 C 0.05,-0.041 -0.109,0.321 -0.121,0.399 L -0.499,1.016 C -0.327,0.686 0.005,0.062 0,0"
             style="fill:#231f20;fill-opacity:1;fill-rule:nonzero;stroke:none"
             id="path70" /></g><g
           id="g72"
           transform="translate(62.4794,57.746)"><path
             d="M 0,0 0.569,-0.921 C 0.094,-0.078 -0.009,0.066 0,0"
             style="fill:#231f20;fill-opacity:1;fill-rule:nonzero;stroke:none"
             id="path74" /></g><g
           id="g76"
           transform="translate(60.472,61.8714)"><path
             d="M 0,0 -0.787,1.587 0.144,-0.31 Z"
             style="fill:#231f20;fill-opacity:1;fill-rule:nonzero;stroke:none"
             id="path78" /></g><g
           id="g80"
           transform="translate(64.8098,53.834)"><path
             d="M 0,0 -0.404,0.469 0.302,-0.376 Z"
             style="fill:#231f20;fill-opacity:1;fill-rule:nonzero;stroke:none"
             id="path82" /></g><g
           id="g84"
           transform="translate(66.4083,51.5802)"><path
             d="M 0,0 C -0.344,0.31 0.307,-0.562 -0.033,-0.215 0.451,-0.792 0.907,-1.249 1.321,-1.655 0.904,-1.203 0.495,-0.688 0,0"
             style="fill:#231f20;fill-opacity:1;fill-rule:nonzero;stroke:none"
             id="path86" /></g><g
           id="g88"
           transform="translate(68.4137,49.2352)"><path
             d="M 0,0 C -0.193,0.195 -0.428,0.431 -0.685,0.69 -0.462,0.45 -0.24,0.218 0,0"
             style="fill:#231f20;fill-opacity:1;fill-rule:nonzero;stroke:none"
             id="path90" /></g><g
           id="g92"
           transform="translate(64.0157,55.2539)"><path
             d="M 0,0 C 0.034,-0.078 0.091,-0.236 0.421,-0.748 L 0.244,-0.351 C 0.169,-0.244 0.085,-0.123 0,0"
             style="fill:#231f20;fill-opacity:1;fill-rule:nonzero;stroke:none"
             id="path94" /></g><g
           id="g96"
           transform="translate(64.2527,54.9171)"><path
             d="M 0,0 0.007,-0.014 C 0.27,-0.395 0.452,-0.659 0.531,-0.772 0.464,-0.675 0.304,-0.443 0,0"
             style="fill:#231f20;fill-opacity:1;fill-rule:nonzero;stroke:none"
             id="path98" /></g><g
           id="g100"
           transform="translate(63.9545,55.3422)"><path
             d="M 0,0 0.061,-0.088 C 0.044,-0.05 0.032,-0.029 0,0"
             style="fill:#231f20;fill-opacity:1;fill-rule:nonzero;stroke:none"
             id="path102" /></g><g
           id="g104"
           transform="translate(61.6898,59.3194)"><path
             d="M 0,0 C 0.343,-0.536 1.044,-1.654 0.44,-0.527 0.177,-0.155 0.52,-0.802 0,0"
             style="fill:#231f20;fill-opacity:1;fill-rule:nonzero;stroke:none"
             id="path106" /></g><g
           id="g108"
           transform="translate(63.7286,55.8282)"><path
             d="M 0,0 C -0.028,-0.019 -0.576,0.995 -0.576,0.995 -0.58,0.965 -0.499,0.771 -0.672,1.034 -0.672,1.034 -0.031,-0.021 0,0"
             style="fill:#231f20;fill-opacity:1;fill-rule:nonzero;stroke:none"
             id="path110" /></g><g
           id="g112"
           transform="translate(64.0739,55.3835)"><path
             d="m 0,0 -0.345,0.445 0.24,-0.351 z"
             style="fill:#231f20;fill-opacity:1;fill-rule:nonzero;stroke:none"
             id="path114" /></g><g
           id="g116"
           transform="translate(67.2201,50.8331)"><path
             d="M 0,0 C 0.357,-0.351 0.716,-0.763 1.119,-1.231 0.687,-0.704 0.262,-0.185 -0.145,0.313 -0.23,0.36 -0.459,0.54 0,0"
             style="fill:#231f20;fill-opacity:1;fill-rule:nonzero;stroke:none"
             id="path118" /></g><g
           id="g120"
           transform="translate(65.7275,52.7826)"><path
             d="M 0,0 0.068,-0.088 C 0.035,-0.027 0.006,0.02 0,0"
             style="fill:#231f20;fill-opacity:1;fill-rule:nonzero;stroke:none"
             id="path122" /></g><g
           id="g124"
           transform="translate(72.5748,45.2236)"><path
             d="M 0,0 -0.051,0.091 -0.085,0.086 Z"
             style="fill:#231f20;fill-opacity:1;fill-rule:nonzero;stroke:none"
             id="path126" /></g><g
           id="g128"
           transform="translate(67.0178,51.2432)"><path
             d="M 0,0 C -0.306,0.391 -0.518,0.599 -0.724,0.795 -0.474,0.509 -0.219,0.217 0.057,-0.097 0.095,-0.119 0.107,-0.118 0,0"
             style="fill:#231f20;fill-opacity:1;fill-rule:nonzero;stroke:none"
             id="path130" /></g><g
           id="g132"
           transform="translate(69.5749,47.9922)"><path
             d="M 0,0 C -0.169,0.199 -0.358,0.426 -0.534,0.686 -0.411,0.452 -0.093,0.037 0,0"
             style="fill:#231f20;fill-opacity:1;fill-rule:nonzero;stroke:none"
             id="path134" /></g><g
           id="g136"
           transform="translate(65.8698,52.5406)"><path
             d="M 0,0 -0.046,0.059 C 0.031,-0.089 0.027,-0.066 0,0"
             style="fill:#231f20;fill-opacity:1;fill-rule:nonzero;stroke:none"
             id="path138" /></g><g
           id="g140"
           transform="translate(65.8698,52.5406)"><path
             d="M 0,0 0.424,-0.503 C 0.248,-0.272 0.083,-0.054 -0.075,0.154 -0.053,0.109 -0.025,0.051 0,0"
             style="fill:#231f20;fill-opacity:1;fill-rule:nonzero;stroke:none"
             id="path142" /></g><g
           id="g144"
           transform="translate(74.6795,44.9207)"><path
             d="m 0,0 c -0.151,-0.059 -1.335,0.538 -2.021,1.452 -0.88,0.655 -0.651,-0.157 -0.135,-1.058 0.075,0.037 0.077,0.036 1.035,-0.597 -0.296,0.277 -1.758,1.838 -0.975,1.277 1.148,-0.968 0.915,-0.824 1.42,-1.367 -0.37,0.532 1.693,-0.938 1.62,-0.481 l -1.112,0.698 C -0.16,-0.026 0.266,-0.25 0,0"
             style="fill:#231f20;fill-opacity:1;fill-rule:nonzero;stroke:none"
             id="path146" /></g><g
           id="g148"
           transform="translate(70.9739,46.8599)"><path
             d="M 0,0 -0.348,0.318 C 0.02,-0.076 0.26,-0.382 0.69,-0.971 1.293,-1.478 1.446,-1.549 1.516,-1.55 l -1.645,1.648 z"
             style="fill:#231f20;fill-opacity:1;fill-rule:nonzero;stroke:none"
             id="path150" /></g><g
           id="g152"
           transform="translate(69.1399,48.6799)"><path
             d="M 0,0 C 0.307,-0.215 1.193,-0.917 0.787,-0.347 -0.184,0.62 0.061,0.286 -0.528,0.859 0.941,-0.809 -0.992,1.3 -0.001,0.023 -0.305,0.365 -0.558,0.649 -0.801,0.922 -0.563,0.609 -0.33,0.302 -0.1,-0.002 L -0.127,0.043 -0.134,0.051 -0.131,0.05 c -0.05,0.085 -0.064,0.116 -0.001,0.027 L -0.1,0.043 C -0.078,0.044 -0.04,0.023 -0.001,0 0.397,-0.514 0.041,-0.102 -0.1,0.043 L -0.131,0.05 -0.127,0.043 C -0.173,-0.003 1.486,-1.502 1.486,-1.502 1.172,-1.146 0.712,-0.769 0,0"
             style="fill:#231f20;fill-opacity:1;fill-rule:nonzero;stroke:none"
             id="path154" /></g><g
           id="g156"
           transform="translate(62.8465,57.8503)"><path
             d="M 0,0 C 0.03,-0.061 0.024,-0.068 0.024,-0.068 0.104,-0.186 0.136,-0.229 0,0"
             style="fill:#231f20;fill-opacity:1;fill-rule:nonzero;stroke:none"
             id="path158" /></g><g
           id="g160"
           transform="translate(63.2794,57.0519)"><path
             d="m 0,0 c -0.091,0.132 -0.182,0.233 -0.443,0.684 -0.215,0.398 0.028,0.014 0.034,0.046 -0.177,0.259 -0.603,0.921 -0.125,0.058 l 0.087,-0.13 C -0.01,-0.115 0.493,-1.153 0.405,-1.025 0.329,-0.764 0.252,-0.54 0,0"
             style="fill:#231f20;fill-opacity:1;fill-rule:nonzero;stroke:none"
             id="path162" /></g><g
           id="g164"
           transform="translate(66.0971,52.7372)"><path
             d="M 0,0 C 0,0 0.259,-0.383 0.578,-0.717 0.892,-1.055 1.206,-1.392 1.206,-1.392 L 0.654,-0.631 0.645,-0.701 C 0,0.123 0.116,-0.073 0,0"
             style="fill:#231f20;fill-opacity:1;fill-rule:nonzero;stroke:none"
             id="path166" /></g><g
           id="g168"
           transform="translate(72.6751,45.0103)"><path
             d="M 0,0 -0.286,0.044 C -0.306,0.018 0.686,-0.474 0.686,-0.474 Z"
             style="fill:#231f20;fill-opacity:1;fill-rule:nonzero;stroke:none"
             id="path170" /></g><g
           id="g172"
           transform="translate(74.5649,43.4804)"><path
             d="m 0,0 -0.17,-0.076 0.557,-0.33 z"
             style="fill:#231f20;fill-opacity:1;fill-rule:nonzero;stroke:none"
             id="path174" /></g><g
           id="g176"
           transform="translate(142.4069,105.8107)"><path
             d="M 0,0 -0.438,0.301 C -0.265,0.139 -0.125,0.051 0,0"
             style="fill:#231f20;fill-opacity:1;fill-rule:nonzero;stroke:none"
             id="path178" /></g><g
           id="g180"
           transform="translate(143.9308,102.6613)"><path
             d="M 0,0 0.406,0.102 C 0.134,0.151 -0.042,0.138 0,0"
             style="fill:#231f20;fill-opacity:1;fill-rule:nonzero;stroke:none"
             id="path182" /></g><g
           id="g184"
           transform="translate(132.4521,38.1821)"><path
             d="M 0,0 C 1.079,-0.133 2.506,-0.507 1.98,0.095 L 1.328,0.602 C 0.877,0.2 0.425,0.05 0,0"
             style="fill:#231f20;fill-opacity:1;fill-rule:nonzero;stroke:none"
             id="path186" /></g><g
           id="g188"
           transform="translate(152.2939,73.8059)"><path
             d="M 0,0 C -0.102,-0.054 -0.212,-0.111 -0.319,-0.167 -0.046,-0.419 0.208,-0.653 0.443,-0.869 0.304,-0.604 0.186,-0.313 0,0"
             style="fill:#231f20;fill-opacity:1;fill-rule:nonzero;stroke:none"
             id="path190" /></g><g
           id="g192"
           transform="translate(148.4878,75.0877)"><path
             d="M 0,0 0.746,0.834 C 0.501,0.656 0.253,0.388 0,0"
             style="fill:#231f20;fill-opacity:1;fill-rule:nonzero;stroke:none"
             id="path194" /></g><g
           id="g196"
           transform="translate(129.4417,119.6917)"><path
             d="M 0,0 C 0,0 -0.217,-0.068 -0.433,-0.135 -0.654,-0.213 -0.874,-0.291 -0.874,-0.291 -0.188,-0.824 -0.274,-0.277 0,0"
             style="fill:#231f20;fill-opacity:1;fill-rule:nonzero;stroke:none"
             id="path198" /></g><g
           id="g200"
           transform="translate(97.1653,32.8505)"><path
             d="M 0,0 C 0.672,-0.305 1.221,-0.495 1.708,-0.62 0.89,-0.193 0.27,0.293 0,0"
             style="fill:#231f20;fill-opacity:1;fill-rule:nonzero;stroke:none"
             id="path202" /></g><g
           id="g204"
           transform="translate(151.5364,109.2549)"><path
             d="M 0,0 C -0.337,0.227 -0.579,0.265 -0.749,0.158 -0.419,-0.078 -0.154,-0.172 0,0"
             style="fill:#231f20;fill-opacity:1;fill-rule:nonzero;stroke:none"
             id="path206" /></g><g
           id="g208"
           transform="translate(100.9177,31.9682)"><path
             d="M 0,0 C -0.133,0.053 -0.241,0.096 -0.367,0.147 -0.89,0.143 -1.421,0.103 -2.044,0.262 -1.442,-0.05 -0.717,-0.218 0,0"
             style="fill:#231f20;fill-opacity:1;fill-rule:nonzero;stroke:none"
             id="path210" /></g><g
           id="g212"
           transform="translate(64.3359,110.6806)"><path
             d="M 0,0 -0.102,-0.14 C -0.103,-0.16 -0.062,-0.095 0,0"
             style="fill:#231f20;fill-opacity:1;fill-rule:nonzero;stroke:none"
             id="path214" /></g><g
           id="g216"
           transform="translate(56.053,90.0713)"><path
             d="M 0,0 C 0.034,0.226 0.086,0.578 0.136,0.914 0.11,0.74 0.072,0.486 0,0"
             style="fill:#231f20;fill-opacity:1;fill-rule:nonzero;stroke:none"
             id="path218" /></g><g
           id="g220"
           transform="translate(82.6591,37.8705)"><path
             d="M 0,0 C -0.465,0.239 -0.085,0.014 0,0"
             style="fill:#231f20;fill-opacity:1;fill-rule:nonzero;stroke:none"
             id="path222" /></g><g
           id="g224"
           transform="translate(80.8982,39.9453)"><path
             d="M 0,0 C 0.11,-0.025 0.2,-0.032 0.238,0.012 0.173,-0.021 0.092,-0.021 0,0"
             style="fill:#231f20;fill-opacity:1;fill-rule:nonzero;stroke:none"
             id="path226" /></g><g
           id="g228"
           transform="translate(106.1303,34.674)"><path
             d="M 0,0 H 0.044 C -0.109,0.091 -0.083,0.074 0,0"
             style="fill:#231f20;fill-opacity:1;fill-rule:nonzero;stroke:none"
             id="path230" /></g><g
           id="g232"
           transform="translate(82.0232,38.3567)"><path
             d="M 0,0 C 0.157,-0.123 0.344,-0.255 0.551,-0.391 0.465,-0.32 0.298,-0.2 0,0"
             style="fill:#231f20;fill-opacity:1;fill-rule:nonzero;stroke:none"
             id="path234" /></g><g
           id="g236"
           transform="translate(82.0612,38.1962)"><path
             d="M 0,0 C -0.154,0.097 -0.274,0.171 -0.388,0.243 -0.465,0.237 -0.426,0.185 0,0"
             style="fill:#231f20;fill-opacity:1;fill-rule:nonzero;stroke:none"
             id="path238" /></g><g
           id="g240"
           transform="translate(83.3032,37.5293)"><path
             d="M 0,0 C -0.264,0.142 -0.503,0.289 -0.729,0.436 -0.647,0.37 -0.616,0.336 -0.644,0.341 -0.508,0.269 -0.317,0.168 0,0"
             style="fill:#231f20;fill-opacity:1;fill-rule:nonzero;stroke:none"
             id="path242" /></g><g
           id="g244"
           transform="translate(98.3486,130.7278)"><path
             d="M 0,0 C -0.035,0.008 -0.067,0.016 -0.11,0.026 -0.58,-0.201 -0.367,-0.148 0,0"
             style="fill:#231f20;fill-opacity:1;fill-rule:nonzero;stroke:none"
             id="path246" /></g><g
           id="g248"
           transform="translate(137.4414,52.8316)"><path
             d="m 0,0 c -0.008,-0.022 0.001,-0.046 -0.005,-0.068 l 0.067,0.032 z"
             style="fill:#231f20;fill-opacity:1;fill-rule:nonzero;stroke:none"
             id="path250" /></g><g
           id="g252"
           transform="translate(138.0448,54.5161)"><path
             d="m 0,0 c 0.349,-1.234 -0.03,-1.465 -0.542,-1.721 l 2.177,-1.23 c 0,0 -0.4,0.743 -0.8,1.486 C 0.418,-0.733 0,0 0,0"
             style="fill:#231f20;fill-opacity:1;fill-rule:nonzero;stroke:none"
             id="path254" /></g><g
           id="g256"
           transform="translate(92.5113,132.5238)"><path
             d="M 0,0 0.354,-0.003 C -0.362,-0.335 -0.179,-0.174 0,0 m -6.155,-96.05 c -0.18,0.025 -0.186,-0.023 -0.134,-0.096 0.144,0.031 0.511,-0.117 0.919,-0.317 -0.085,0.134 -0.273,0.28 -0.785,0.413 m 1.575,-0.831 h 0.044 c 0.741,-0.468 0.48,-0.296 -0.044,0 m 61.722,35.971 c -0.274,0.342 -0.01,0.684 0.495,1.037 0.002,-0.342 -0.131,-0.702 -0.495,-1.037 m -3.394,26.368 c -0.318,0.246 -1.16,0.63 -0.664,1.074 1.236,0.063 0.805,-0.427 0.664,-1.074 m -8.753,14.631 0.149,-1.372 c -1.832,0.222 -2.074,1.239 -2.237,-0.271 1.014,0.81 1.825,0.068 2.479,-0.793 0.653,-0.863 1.311,-1.712 2.479,-0.978 l -0.044,-0.952 c -0.1,0.192 -0.253,0.126 -0.35,0.316 -0.265,-1.928 2.255,0.234 2.91,-1.669 0.153,-0.7 0.027,-1.304 -0.485,-1.083 l 1.346,-0.937 c 0.159,-0.408 -0.322,-0.544 -0.485,-0.148 0.052,0.03 1.152,-1.941 1.152,-1.941 l -0.083,-0.021 c 0.536,-0.094 1.479,-0.473 1.909,-0.687 -0.131,-0.702 -0.404,0.143 -0.669,-0.142 0,0 1.196,-0.87 1.168,-0.887 -0.509,-0.769 -1.55,-0.07 -1.836,0.739 -2.162,-2.198 1.141,-0.656 0.351,-3.648 l -0.715,0.958 c -1.315,-1.287 -0.484,-1.905 -1.07,-3.395 0.44,0.397 1.66,3.249 2.777,2.242 -0.091,-0.436 -0.011,-0.924 0.774,-1.446 -1.001,-0.316 -0.6,-0.923 -0.336,-1.765 l -1.364,-0.303 c 0.602,-0.795 1.279,-0.555 2.026,-0.956 0.122,-1.073 -0.884,-1.499 -1.768,-1.915 -0.004,-1.681 1.561,1.481 2.089,-0.448 -0.379,-1.5 0.464,-2.343 1.383,-4.009 -0.444,-1.045 -0.872,0.108 -1.261,-0.284 l 1.166,-0.809 c -0.017,-0.221 -0.368,-0.168 -0.544,-0.142 0.472,-0.729 1.417,0.017 1.862,-1.186 0.776,-0.143 0.28,-0.798 -0.285,-1.559 -0.588,-0.769 -1.152,-1.625 -0.303,-2.419 -0.42,-0.34 -0.859,0.229 -1.413,0.149 1.065,-2.087 0.808,-1.766 2.088,-3.636 l -1.133,-1.294 c 1.204,0.881 2.248,-0.645 3.061,-2.116 0.561,0.296 1.056,0.56 1.302,0.755 0,0 0.106,-0.549 0.211,-1.097 0.094,-0.55 0.125,-1.096 0.125,-1.096 -0.289,-0.196 -0.706,0.12 -1.196,0.569 0.079,-0.16 0.158,-0.313 0.235,-0.437 -0.692,-0.598 -1.381,-0.031 -2.024,0.626 0.336,0.168 0.685,0.342 1.028,0.513 -0.763,0.666 -1.631,1.279 -2.458,1.333 0.142,-0.152 0.245,-0.415 0.284,-0.692 -0.21,0.168 -0.403,0.286 -0.549,0.257 -0.162,-0.033 0.143,-0.293 0.405,-0.668 l -1.638,-0.082 0.583,-0.235 -1.534,-2.113 c 0.581,-1.056 1.263,-2.132 1.702,-3.327 0.45,-1.194 0.791,-2.564 0.486,-4.07 -0.709,1.11 -1.617,0.862 -2.816,1.429 1.598,0.175 0.178,2.285 0.93,3.516 -0.395,-0.662 -0.941,-0.289 -1.091,-0.04 l 0.358,-2.87 c -0.982,0.468 -0.923,-0.207 -1.633,-0.616 2.176,-0.406 0.481,-2.334 0.608,-3.606 -0.654,0.273 -1.192,0.841 -0.507,1.919 -2.012,-0.524 1.487,-2.848 -0.465,-3.422 0.148,0.284 0.331,0.38 0.082,0.663 0.163,-0.951 -1.198,-2.279 -1.49,-1.583 l 0.146,0.279 c -0.317,-0.418 -0.672,-0.97 -1.01,-1.584 -0.362,-0.597 -0.77,-1.214 -1.065,-1.85 -0.613,-1.251 -0.894,-2.525 -0.377,-3.175 -0.178,0.125 -1.381,1.516 -1.586,1.84 0,0 0.151,-0.419 0.319,-1.021 0.177,-0.608 0.398,-1.427 0.596,-2.26 0.403,-1.663 0.687,-3.387 0.687,-3.387 -0.808,1.232 -4.05,2.622 -3.505,4.489 -0.489,-0.22 -0.982,-0.568 -1.38,-1.643 0.378,0.083 2.044,-0.844 1.793,-1.27 -2.04,0.222 -1.261,-0.029 -3.278,-0.151 0.565,0.134 1.6,-1.864 0.924,-2.39 -0.114,0.332 -1.42,1.555 -1.356,1.929 0,0 -0.024,-0.75 -0.048,-1.5 -0.047,-0.738 -0.152,-1.447 -0.152,-1.447 0.18,0.607 -1.027,1.421 -1.723,1.602 0.406,-0.188 -1.359,-1.046 -1.651,-1.547 l 0.933,0.155 c -1.902,-1.201 -0.241,-3.668 -2.348,-4.845 0.055,0.492 -0.682,2.474 -1.759,2.049 0.017,-0.553 0.132,-1.945 -0.075,-3.291 -0.202,-1.347 -0.683,-2.749 -1.559,-3.523 l -0.605,0.306 c 0,0 -0.327,-0.31 -0.654,-0.619 -0.329,-0.312 -0.689,-0.562 -0.689,-0.562 0.568,1.562 1.854,5.542 2.511,7.259 -0.944,-0.028 -0.509,0.456 -1.589,-0.187 -0.61,0.24 0.248,1.013 0.546,1.214 l -2.64,-1.114 c 0.278,-0.458 -0.095,-0.975 -0.496,-1.472 -0.418,-0.452 -0.869,-0.866 -0.657,-1.249 0,0 0.162,0.139 0.405,0.348 0.247,0.198 0.56,0.493 0.852,0.824 0.583,0.637 1.166,1.274 1.166,1.274 0.604,-0.879 -0.325,-3.778 -2.529,-4.295 -0.656,0.182 -0.26,1.864 -0.436,2.172 -0.117,-0.437 -1.627,-1.398 -1.886,-1.242 l 0.651,0.856 c -1.17,-0.119 -1.37,-2.015 -3.007,-1.496 -0.495,-0.078 -1.683,0.746 -1.63,0.18 0.987,-0.792 2.024,-4.012 1.641,-4.92 -0.214,0.019 -2.96,0.359 -3.63,0.832 -0.96,0.644 0.905,2.078 0.073,2.64 0.017,-0.247 -0.374,-0.626 -0.546,-0.753 -0.55,0.108 0.086,0.78 -1.005,0.457 -0.054,-0.908 -2.285,-0.356 -0.421,-0.835 -1.077,-0.415 -1.19,-0.099 -2.492,-0.25 0.479,-0.515 -1.042,-1.898 -2.221,-2.153 0.06,0.205 -0.211,0.456 -0.34,0.568 -1.183,-0.05 -2.09,0.042 -2.971,0.208 -0.882,0.134 -1.738,0.252 -2.832,0.299 -0.19,0.17 -1.217,0.423 -0.741,0.686 -0.321,-0.087 -0.63,-0.27 -1.298,-0.196 -1.208,0.73 1.487,-0.103 0.594,0.708 -0.126,-0.378 -1.772,-0.315 -2.762,-0.407 0.197,-0.592 2.188,-0.427 3.154,-0.3 -0.076,-0.843 -1.857,-1.442 -4.255,-1.341 -1.871,0.213 -0.691,0.654 -1.032,0.612 -3.312,1.093 -3.238,-0.458 -5.827,1.114 -0.947,0.806 0.21,0.755 0.064,1.119 1.442,-0.41 2.091,-1.019 3.091,-1.26 l -1.157,0.52 c 0.503,0.007 1.497,-0.135 1.992,-0.396 -0.841,0.519 -5.578,1.726 -7.848,3.167 -0.472,0.096 -1.256,0.35 -0.966,0.062 l 0.778,-0.327 c 0.583,-0.598 -1.586,0.373 -0.679,-0.221 -1.076,0.382 -2.423,0.608 -3.681,1.668 l -0.091,0.447 c -0.018,-0.097 0.787,-0.741 1.222,-0.887 -0.642,0.238 -1.859,1.689 -2.692,1.728 l 0.836,-0.794 c -1.033,0.506 -2.456,0.956 -3.485,1.995 0.353,-0.636 0.271,-0.186 0.888,-1.097 -0.507,0.844 3.05,-2.091 2.112,-0.897 0.669,-0.924 1.386,-1.223 2.413,-2.238 0.017,0.124 -0.326,0.434 0.715,-0.207 0.065,0.005 0.198,-0.018 0.283,-0.035 0.03,-0.02 0.041,-0.028 0.068,-0.047 l -0.053,0.045 c 0.055,-0.009 0.06,-0.008 -0.02,0.016 -0.231,0.187 -0.408,0.354 -0.462,0.457 0.654,-0.045 2.35,-0.948 2.989,-1.109 0.61,-0.391 -0.327,0.003 -0.036,-0.309 -0.007,-0.02 0.963,-0.221 0.972,-0.197 -0.028,-0.305 1.581,-1.219 -0.058,-0.712 l 1.412,-0.625 c 0.774,-0.521 1.901,-1.137 2.67,-1.275 0.675,-0.305 1.868,-0.19 1.185,-0.265 l 2.378,-0.516 v -0.1 c 1.133,-0.441 2.39,-0.47 3.652,-0.658 1.27,-0.162 2.549,-0.484 3.898,-0.994 0.822,0.025 1.661,0.087 3.019,-0.194 l 0.26,-0.457 c 1.044,0.023 3.197,-0.537 3.636,-0.097 0.604,-0.586 1.94,-0.82 3.327,-0.609 1.394,0.165 2.852,0.491 3.826,0.454 l -0.058,0.675 c 1.295,0.116 2.468,0.605 3.965,1.186 l -0.267,0.597 c 1.197,0.725 3.516,0.463 5.605,1.175 -0.044,-0.292 -0.603,-0.393 -1.032,-0.363 0.758,-0.167 1.457,-0.083 2.104,0.135 0.633,0.254 1.198,0.68 1.749,1.098 1.092,0.871 2.119,1.694 3.452,1.731 0.385,0.524 0.803,0.648 1.266,0.683 -0.047,-0.028 -0.083,-0.064 -0.108,-0.105 0.058,0.021 0.138,0.063 0.218,0.11 0.297,0.013 0.615,0.012 0.94,0.048 -0.319,0.039 -0.608,0.056 -0.826,0.017 0.393,0.235 0.953,0.654 1.439,1.15 l 0.715,-0.564 c 0.045,0.034 0.079,0.06 0.127,0.097 0.77,0.067 0.248,0.596 -0.414,0.952 0.227,0.272 0.375,0.606 0.458,0.908 1.242,-0.828 1.159,1.384 2.66,0.607 -0.033,0.423 0.583,1.021 1.113,1.691 0.485,0.726 0.876,1.525 0.477,2.239 0.154,-0.142 0.367,-0.088 0.106,-0.332 0.675,0.347 1.366,0.701 1.55,1.468 l 1.048,-0.636 c 0,0 0.032,0.549 0.065,1.099 -0.006,0.57 -0.011,1.14 -0.011,1.14 1.181,0.201 1.801,0.223 1.769,-1.128 0.619,2.698 0.987,1.77 1.25,4.171 l 0.549,-0.579 c 0.431,0.591 0.283,2.145 1.069,2.083 2.372,0.297 4.759,6.348 7.793,9.587 -1.33,0.139 -0.839,0.452 -0.272,0.874 0.542,0.433 1.206,0.977 0.327,1.407 0.64,0.011 1.172,0.453 1.405,-0.381 0.207,2.238 2.163,2.794 0.918,4.745 0.648,0.077 0.725,-0.698 1.127,-0.582 -0.077,0.21 -0.319,0.821 0.089,0.948 0.406,0.125 0.403,-0.447 0.561,-0.863 0.516,2.257 -1.249,2.902 -2.915,3.449 1.106,0.86 1.105,1.454 0.075,2.435 0.623,0.262 1.321,0.801 1.308,-0.575 0.194,0.717 1.599,4.521 0.146,4.739 0.371,0.201 0.164,1.046 0.012,1.255 0.175,1.681 0.311,1.831 0.26,3.494 l -0.255,-0.457 c -1.648,0.668 -0.375,1.359 -0.643,2.686 l 0.177,-0.031 c 1.034,3.121 -0.557,1.254 0.493,4.387 l -1.029,-0.286 c -2.303,-0.03 0.94,2.79 -0.211,4.414 l -0.489,-0.735 c -0.874,0.743 2.375,3.238 2.392,4.338 0.132,0.264 0.394,-0.255 0.615,-0.52 0.59,2.92 -1.417,-0.011 -2.225,1.767 0.597,0.557 1.954,0.09 1.666,1.404 0.281,0.853 -3.537,2.819 -2.998,4.933 -0.334,-0.58 -0.682,-1.135 -1.457,-0.509 -0.769,1.086 0.26,4.27 -1.921,4.507 0.038,0.219 0.128,0.345 0.242,0.418 -0.944,0.674 -2.441,2.493 -3.521,2.5 1.163,1.336 -0.219,2.391 -1.461,3.29 -1.22,0.931 -2.484,1.587 -1.348,2.557 l -2.321,2.203 0.273,0.149 c -1.317,1.581 -2.422,1.48 -3.386,1.455 -0.218,0.448 0.214,0.425 0.345,0.511 -1.82,2.392 -2.316,2.376 -5.073,2.725 l 0.306,0.862 c -0.742,0.029 -2.915,3.406 -6.018,3.84 0.068,0.07 0.196,0.185 0.463,0.194 -1.73,0.21 -3.218,1.585 -4.745,2.387 -1.518,0.796 -2.924,1.259 -3.888,0.188 0.007,0.052 -2.227,-0.092 -2.227,-0.092 2.569,-0.812 -0.698,-0.98 0.254,-1.649 -1.027,0.118 -2.409,1.392 -1.129,1.211 l 0.164,-0.17 c 0.804,1.154 -3.134,1.247 -2.9,2.006 -5.306,0.812 -10.561,1.288 -15.567,0.615 0,0 0.642,-0.606 0.641,-0.625 C 7.135,1.083 5.427,0.792 5.427,0.792 4.96,0.87 4.75,1.209 5.981,1.424 5.282,1.684 3.971,0.694 3.966,0.554 1.538,0.36 4.772,1.502 4.042,1.382 L 3.049,1.127 3.288,1.097 C 2.532,0.635 2.492,0.466 1.064,0.053 0.134,-0.092 0.515,0.284 0.153,0.2 0.146,0.243 0.02,0.225 -0.398,0.05 l -2.111,-0.598 0.961,-0.179 c -0.868,-0.474 -1.956,-0.569 -0.86,-0.752 -0.809,0.162 -2.702,-0.586 -4.513,-1.299 -1.77,-0.817 -3.383,-1.784 -3.831,-1.892 -1.108,-0.777 -2.158,-1.585 -3.564,-2.41 0.373,0.17 0.747,0.018 -0.459,-0.683 0.053,0.389 -0.561,0.154 -1.253,-0.342 -0.694,-0.493 -1.537,-1.128 -2.102,-1.329 0.478,0.214 -0.296,-0.425 -1.005,-1.022 -0.704,-0.604 -1.26,-1.264 -0.588,-0.83 -0.876,-0.773 -0.17,0.092 -0.886,-0.441 -1.943,-2.004 -4.422,-4.289 -6.39,-7.124 -0.002,-0.065 0.378,0.366 -0.009,-0.265 l -1.192,-1.371 c -0.353,-0.581 -0.27,-0.572 -0.964,-1.595 0.108,0.139 0.271,0.343 0.049,-0.054 -3.653,-5.633 -6.083,-12.327 -7.154,-19.011 0.139,0.908 0.05,0.303 -0.054,-0.391 0.069,0.451 0.004,-0.011 0.02,0.077 0,0 -0.458,-2.803 -0.397,-2.809 -0.065,-1.314 -0.106,-2.125 -0.166,-3.335 l 0.046,0.897 c -0.061,-1.194 0.088,1.67 0.084,1.495 -0.03,1.347 0.477,3.493 0.767,5.666 0.08,0.478 -0.06,-0.409 -0.016,-0.154 0.053,0.556 0.253,1.2 0.572,2.403 l -0.034,-0.136 c 0.85,3.388 1.419,4.797 3.011,8.367 l -0.167,-0.243 c 0.35,0.661 0.468,0.883 0.662,1.25 0.373,0.893 -1.066,-2.112 -0.732,-1.297 0.285,0.485 0.953,1.811 1.602,3.094 0.673,1.269 1.495,2.403 1.745,2.689 0.7,1.084 -0.274,-0.276 0.423,0.811 l 0.224,0.263 0.124,0.309 c 0.452,0.716 0.828,0.975 0.867,0.985 -0.125,-0.164 -0.356,-0.466 -0.487,-0.637 0.737,0.82 1.911,2.425 2.164,2.704 l -0.803,-0.942 c 2.037,2.888 5.308,5.698 7.777,7.987 l -0.248,-0.105 c 1.922,1.733 1.73,1.152 3.983,2.859 l -0.071,-0.079 c 0.39,0.431 1.037,0.829 1.715,1.206 -0.554,-0.455 1.304,0.443 0.563,-0.135 2.326,1.524 1.092,0.843 2.518,2.083 l 0.487,-0.011 c 0.486,0.428 0.488,0.544 1.754,1.19 -0.975,-0.653 0.969,0.051 -0.106,-0.706 1.446,0.383 2.403,0.88 3.23,1.222 0.81,0.371 1.448,0.672 2.225,0.46 1.047,1.134 -2.555,-0.395 -1.889,-0.014 -0.688,0.008 0.881,0.866 1.79,1.109 0.894,0.346 1.853,-0.526 4.128,-0.036 -0.229,-0.044 -0.229,-0.109 -0.457,-0.152 0.911,-0.077 1.6,0.721 2.75,0.424 0.502,0.61 1.389,0.106 1.45,0.845 L 2.663,-2.345 c 1.174,0.3 2.207,1.312 4.286,1.162 -0.141,-0.178 -0.717,-0.455 -1.112,-0.613 0.614,-0.171 1.109,0.321 1.747,0.086 -0.101,-0.722 -2.58,-0.446 -3.792,-1.105 0.67,-0.248 2.362,0.767 1.827,-0.093 0.393,0.551 0.973,0.586 1.626,0.585 0.662,-0.055 1.394,-0.175 2.158,0.26 L 9.327,-2.554 c 0.242,0.074 0.747,0.308 1.205,0.297 L 9.735,-2.9 c 1.246,0.539 2.425,-0.485 3.605,-0.38 -2.496,0.268 -0.552,0.735 -1.621,1.166 3.167,0.488 1.779,-1.553 5.177,-1.733 -0.458,0.011 -1.701,0.558 -0.954,0.744 0.652,-0.155 1.478,-0.569 1.827,-0.978 2.232,-0.382 -0.26,0.686 0.738,0.839 0.659,-0.892 1.146,0.06 2.2,0.11 L 20.596,-3.76 c 2.447,-1.038 0.96,1.16 3.147,0.013 L 22.564,-4.35 23.793,-4.486 23.36,-5.152 c 1.388,0.112 1.795,-0.042 2.903,-0.793 -0.123,0.593 0.555,1.15 1.656,0.729 0.588,-0.708 -0.645,-0.478 0.907,-1.013 -0.515,-0.289 -1.069,-0.663 -1.493,0.245 -0.146,-0.193 -0.482,-0.282 -0.624,-0.469 0.597,-0.805 1.863,-0.956 2.402,-1.177 -0.193,0.115 -0.422,0.259 -0.509,0.411 0,0 0.633,0.005 1.266,0.01 0.625,-0.044 1.251,-0.087 1.251,-0.087 0.208,-0.439 -0.152,-0.509 -0.497,-0.573 0.448,-0.155 0.886,0.006 1.535,-0.268 -0.438,-0.482 -0.693,-1.091 -1.652,-0.876 l 2.216,-0.446 c 0.009,-0.309 0.601,-1.239 0.242,-1.308 0.74,-1.055 3.089,-0.565 4.094,-1.973 0.14,0.056 0.341,0.052 0.661,-0.087 1.055,-1.15 1.594,-2.533 3.436,-3.104 l -0.183,-1.689 c 1.179,-0.757 0.154,2.19 2.161,0.913 1.491,-0.868 -0.356,-1.242 -0.241,-1.933 0.967,-0.14 2.968,-0.317 3.099,-2.204 -0.523,0.212 -0.618,0.643 -0.995,0.933"
             style="fill:#231f20;fill-opacity:1;fill-rule:nonzero;stroke:none"
             id="path258" /></g><g
           id="g260"
           transform="translate(148.9286,74.934)"><path
             d="M 0,0 C 0.19,0.062 0.389,0.052 0.589,0.038 0.433,0.205 0.23,0.244 0,0"
             style="fill:#231f20;fill-opacity:1;fill-rule:nonzero;stroke:none"
             id="path262" /></g><g
           id="g264"
           transform="translate(129.6032,119.7415)"><path
             d="M 0,0 -0.035,0.042 C -0.085,0.019 -0.126,-0.014 -0.161,-0.05 Z"
             style="fill:#231f20;fill-opacity:1;fill-rule:nonzero;stroke:none"
             id="path266" /></g><g
           id="g268"
           transform="translate(112.4641,37.8417)"><path
             d="M 0,0 C 0.342,-0.025 0.547,-0.105 0.691,-0.202 0.68,-0.043 0.506,0.059 0,0"
             style="fill:#231f20;fill-opacity:1;fill-rule:nonzero;stroke:none"
             id="path270" /></g><g
           id="g272"
           transform="translate(78.0164,40.6189)"><path
             d="M 0,0 0.965,-0.585 C 0.508,-0.285 0.375,-0.129 0.168,0.059 0.159,-0.004 0.293,-0.197 0,0"
             style="fill:#231f20;fill-opacity:1;fill-rule:nonzero;stroke:none"
             id="path274" /></g><g
           id="g276"
           transform="translate(71.2698,47.6431)"><path
             d="M 0,0 C -0.15,0.125 -0.232,0.194 -0.382,0.319 L -0.4,0.236 C 0.105,-0.223 0.499,-0.498 0,0"
             style="fill:#231f20;fill-opacity:1;fill-rule:nonzero;stroke:none"
             id="path278" /></g><g
           id="g280"
           transform="translate(77.5796,41.8638)"><path
             d="M 0,0 C 0.047,0.233 -0.618,0.484 -1.23,0.962 L -1.122,0.878 C -1.454,0.801 -0.758,0.348 0,0"
             style="fill:#231f20;fill-opacity:1;fill-rule:nonzero;stroke:none"
             id="path282" /></g><g
           id="g284"
           transform="translate(76.2048,42.932)"><path
             d="M 0,0 C -0.193,0.141 -0.388,0.288 -0.567,0.439 -0.697,0.414 -0.351,0.241 0,0"
             style="fill:#231f20;fill-opacity:1;fill-rule:nonzero;stroke:none"
             id="path286" /></g><g
           id="g288"
           transform="translate(84.2528,37.2314)"><path
             d="M 0,0 C -0.303,0.241 -0.343,-0.191 -0.487,0.009 -0.997,-0.114 1.893,-0.804 0,0"
             style="fill:#231f20;fill-opacity:1;fill-rule:nonzero;stroke:none"
             id="path290" /></g><g
           id="g292"
           transform="translate(77.4029,42.7317)"><path
             d="M 0,0 0.103,-0.344 0.576,-0.407 Z"
             style="fill:#231f20;fill-opacity:1;fill-rule:nonzero;stroke:none"
             id="path294" /></g><g
           id="g296"
           transform="translate(82.5545,39.5276)"><path
             d="M 0,0 -1.067,0.614 C -1.072,0.564 -1.226,0.608 -1.408,0.674 -0.733,0.331 -0.014,-0.092 0,0"
             style="fill:#231f20;fill-opacity:1;fill-rule:nonzero;stroke:none"
             id="path298" /></g><g
           id="g300"
           transform="translate(81.1463,40.2019)"><path
             d="M 0,0 C -0.347,0.189 -0.659,0.399 -0.871,0.471 -0.685,0.366 -0.299,0.113 0,0"
             style="fill:#231f20;fill-opacity:1;fill-rule:nonzero;stroke:none"
             id="path302" /></g><g
           id="g304"
           transform="translate(78.8733,41.9241)"><path
             d="M 0,0 0.282,-0.233 1.011,-0.7 Z"
             style="fill:#231f20;fill-opacity:1;fill-rule:nonzero;stroke:none"
             id="path306" /></g><g
           id="g308"
           transform="translate(94.9884,35.0455)"><path
             d="M 0,0 1.353,-0.09 C 1.514,0.045 1.169,0.197 0.665,0.213 0.329,0.156 -0.175,0.178 0,0"
             style="fill:#231f20;fill-opacity:1;fill-rule:nonzero;stroke:none"
             id="path310" /></g><g
           id="g312"
           transform="translate(91.3395,37.1133)"><path
             d="M 0,0 C 0.325,-0.162 0.324,-0.255 0.485,-0.432 L 0.656,0.045 Z"
             style="fill:#231f20;fill-opacity:1;fill-rule:nonzero;stroke:none"
             id="path314" /></g><g
           id="g316"
           transform="translate(95.1073,36.3889)"><path
             d="M 0,0 C 0.163,0.128 1.964,0.211 0.317,0.368 0.155,0.213 -1.165,0.311 0,0"
             style="fill:#231f20;fill-opacity:1;fill-rule:nonzero;stroke:none"
             id="path318" /></g><g
           id="g320"
           transform="translate(114.8616,36.008)"><path
             d="M 0,0 -0.325,-0.096 0.008,-1.44 Z"
             style="fill:#231f20;fill-opacity:1;fill-rule:nonzero;stroke:none"
             id="path322" /></g><g
           id="g324"
           transform="translate(128.6509,46.4271)"><path
             d="M 0,0 C -1.409,-0.449 0.301,-1.113 -1.065,-1.4 -1.14,-1.944 0.055,-1.164 -0.047,-1.665 0.463,-0.802 0.973,-0.758 0,0"
             style="fill:#231f20;fill-opacity:1;fill-rule:nonzero;stroke:none"
             id="path326" /></g><g
           id="g328"
           transform="translate(128.6036,44.7619)"><path
             d="M 0,0 C -0.083,-0.137 -0.165,-0.293 -0.242,-0.478 -0.081,-0.242 -0.024,-0.104 0,0"
             style="fill:#231f20;fill-opacity:1;fill-rule:nonzero;stroke:none"
             id="path330" /></g><g
           id="g332"
           transform="translate(55.7175,86.3562)"><path
             d="m 0,0 -0.052,-1.018 0.034,0.657 z"
             style="fill:#231f20;fill-opacity:1;fill-rule:nonzero;stroke:none"
             id="path334" /></g><g
           id="g336"
           transform="translate(55.6187,84.4019)"><path
             d="M 0,0 -0.012,-0.24 -0.044,-0.851 C -0.032,-0.633 -0.017,-0.337 0,0"
             style="fill:#231f20;fill-opacity:1;fill-rule:nonzero;stroke:none"
             id="path338" /></g><g
           id="g340"
           transform="translate(144.2561,94.7618)"><path
             d="M 0,0 0.342,0.028 C 0.667,0.26 0.648,0.468 0.613,0.886 Z"
             style="fill:#231f20;fill-opacity:1;fill-rule:nonzero;stroke:none"
             id="path342" /></g><g
           id="g344"
           transform="translate(140.7283,106.1206)"><path
             d="M 0,0 0.077,-0.197 0.912,0.791 Z"
             style="fill:#231f20;fill-opacity:1;fill-rule:nonzero;stroke:none"
             id="path346" /></g><g
           id="g348"
           transform="translate(133.7451,113.3302)"><path
             d="M 0,0 C 0.261,-0.31 0.732,-0.513 0.948,-0.872 0.284,-0.298 0.89,1.066 0,0"
             style="fill:#231f20;fill-opacity:1;fill-rule:nonzero;stroke:none"
             id="path350" /></g></g></g><g
       id="g456"><g
         id="g458"><g
           id="g464"><g
             id="g466"><path
               d="m 114.95,119.571 c -0.483,0 -0.966,-1.141 -1.448,-3.423 v 0 h -0.133 l -0.132,0.525 h -0.263 l 0.263,-1.053 -0.263,-5.926 v -5.005 h -7.242 l -0.265,-0.263 v -1.58 l 0.131,-0.131 1.317,-0.264 c 2.899,0 4.347,-0.747 4.347,-2.238 v 0 h 0.133 c 0.262,0 0.395,0.218 0.395,0.658 v 0 h 0.131 v -0.527 l -0.526,-0.658 0.13,-3.952 V 80.721 h -1.448 l -0.263,-0.263 v -3.294 h 0.263 v -1.317 l 0.131,-0.131 h -0.131 l 0.395,-0.395 h 0.395 l 0.528,0.264 v 0.395 l -0.133,-0.133 c -0.44,0.198 -0.659,0.417 -0.659,0.659 v 0 l 0.134,0.133 v 0.13 l 0.393,-0.13 0.132,0.395 h 0.133 l 0.13,-0.791 v -0.132 l -0.13,-0.131 0.13,-0.133 v -1.843 l -0.13,-0.132 -1.055,0.263 v -0.131 l -0.132,-0.132 c 0.395,0 0.747,-0.132 1.054,-0.395 v 0 c 0.133,0 0.218,-0.483 0.263,-1.448 v 0 -0.133 h -0.13 l -0.133,0.133 h -0.132 l -0.132,-0.395 h 0.527 v -1.449 h -0.13 l -0.133,0.131 h -0.132 v -0.264 c 0.265,0 0.395,-0.218 0.395,-0.657 v 0 -0.396 l -0.263,-0.264 h -0.922 l -0.132,0.66 0.395,0.394 -0.789,-0.262 v -1.053 h 0.394 l 0.132,0.13 v -0.13 c 0.199,0 0.462,-0.177 0.79,-0.528 v 0 h 0.132 l -0.132,0.131 0.265,0.265 h 0.13 v -0.66 h -0.13 v 0.264 l -1.318,-0.264 v -0.131 c 0,-0.176 0.175,-0.264 0.526,-0.264 v 0 -0.131 h -0.395 v -0.397 l 0.132,-0.13 -0.263,-0.264 v -0.263 c 0,-0.177 0.131,-0.264 0.395,-0.264 v 0 -0.132 l -0.395,-0.131 0.263,-0.395 h -0.395 v -0.132 l 0.132,-0.131 v -0.132 h -0.263 V 63.73 h 0.263 l 0.395,1.187 h 0.131 l 0.134,-0.132 h 0.261 c 0,0.175 -0.131,0.263 -0.395,0.263 v 0 0.132 c 0.264,0 0.395,0.087 0.395,0.264 v 0 0.131 l -0.131,0.131 h 0.131 l -0.131,0.132 0.131,0.659 v 0.396 l -0.261,0.263 0.261,0.526 h 0.132 v -0.263 l 0.132,0.132 h 0.263 v -0.132 h -0.263 l 0.133,-0.132 -0.265,-0.394 v -0.134 h 0.265 l 0.13,0.134 V 65.31 h -0.13 l -0.133,0.134 h -0.132 l 0.527,-0.396 v 0.132 l 0.133,0.13 h 0.131 l 0.132,-0.13 -0.263,-0.528 -0.528,0.265 -0.264,-0.527 h 0.132 l 0.132,-0.133 -0.264,-0.393 V 63.73 l 0.132,-0.131 c -0.175,0 -0.263,-0.13 -0.263,-0.395 v 0 h -0.79 v 0.265 h -0.263 v -0.395 c 0,-0.178 0.131,-0.264 0.394,-0.264 v 0 c 0,-0.353 0.132,-0.528 0.395,-0.528 v 0 -0.131 h -0.263 v -0.263 l 0.132,0.131 0.526,-0.263 v -0.132 c -0.261,0 -0.395,-0.087 -0.395,-0.264 v 0 l -0.395,0.264 c -0.176,0 -0.263,-0.177 -0.263,-0.527 v 0 h -0.131 l -0.132,0.131 v -0.263 h 0.395 v 0.263 h 0.131 l 0.395,-0.393 V 60.57 l -0.658,0.131 v -0.262 l 0.132,-0.132 h 0.131 l 0.132,0.132 0.263,-0.659 h 0.134 l 0.13,0.132 -0.13,0.132 0.261,0.657 h 0.132 l 0.132,-0.657 -0.132,-0.657 -0.527,0.261 0.134,-0.921 h -0.529 l 0.264,0.395 c -0.44,0 -0.658,0.087 -0.658,0.265 v 0 l -0.264,-0.265 0.264,-0.263 -0.264,-0.395 -0.395,0.263 h -0.131 v -0.528 h -0.397 l -0.13,0.133 v -0.263 h -0.131 l -0.132,0.395 h -0.132 l -0.133,-0.132 c 0,0.262 -0.13,0.395 -0.395,0.395 v 0 c 0,0.35 -0.131,0.527 -0.395,0.527 v 0 0.133 c 0.264,0 0.395,0.085 0.395,0.261 v 0 0.132 h -0.526 l -0.133,-0.132 v -0.131 l 0.133,-0.13 -0.395,-0.133 c 0,-0.354 -0.178,-0.527 -0.528,-0.527 v 0 l -0.262,-0.263 v -0.132 c 0,-0.177 0.132,-0.263 0.395,-0.263 v 0 -0.132 l -0.526,-0.132 -0.527,0.132 v 0.132 l 0.527,0.263 -0.265,0.527 h 0.131 l -0.131,0.395 -0.262,-0.264 h -0.133 l -0.132,0.132 -0.395,-0.263 v 0.263 h -0.131 l -0.527,-0.528 v -0.13 h 0.132 l 0.133,0.13 h 0.393 l -0.131,-0.13 c 0,-0.176 0.131,-0.265 0.396,-0.265 v 0 -0.262 h -0.265 v -0.263 l 0.132,-0.132 -0.92,-0.264 v -0.132 h 0.262 c 0,-0.352 0.088,-0.527 0.265,-0.527 v 0 l -0.265,-0.789 v -0.133 l 0.133,-0.132 h -0.395 V 55.04 l 0.92,-0.923 h 0.395 v 0.265 h 0.395 v -0.265 h 15.804 v 0.265 h 0.66 v -0.265 h 0.131 v 0.527 h 0.395 l -0.133,-0.132 v -0.395 h 0.133 c 0,0.265 0.087,0.395 0.262,0.395 v 0 -0.395 h 0.265 v 0.395 l 0.528,0.132 0.261,0.263 h 0.659 v 0.263 h 0.263 v -0.526 l 0.396,0.133 h 0.131 l -0.131,0.658 h -0.265 l -0.131,-0.133 v 0.921 h 0.131 v -0.526 h 0.265 l 0.131,0.133 0.396,-0.133 v -0.262 h -0.263 l 0.131,-0.658 v -0.133 h -0.264 v -0.262 h 0.133 l 0.394,0.395 v 0.13 l -0.131,0.133 0.131,0.395 h 0.265 v 0.13 h -0.265 v 0.265 h 0.265 v 0.262 h -0.265 v 0.265 h 0.265 v 2.107 l -0.659,0.79 -4.873,0.921 -0.397,-0.131 0.132,0.395 -0.262,1.712 -0.131,-0.132 -0.134,0.132 -0.13,-0.132 -0.133,0.132 -0.132,-0.132 -0.393,0.132 -0.528,-0.132 h -0.132 l 0.132,0.132 v 0.131 l -0.132,0.133 v 0.789 l 0.132,0.133 -0.132,0.132 v 0.526 l 0.923,-0.526 h 0.13 v 0.395 h -0.393 l 0.13,0.131 -0.264,0.262 h -0.131 l -0.13,-0.13 v 0.395 l 0.13,-0.132 0.528,0.262 v 0.133 l -0.133,0.132 0.923,0.263 v 0.13 l -0.265,0.265 h -0.525 l 0.13,-0.131 V 65.18 h -0.13 l -0.263,0.264 v 0.262 l -0.134,-0.131 -0.526,0.131 v 0.132 h 0.395 v 0.921 h -0.263 l -0.132,-0.13 v 1.053 l 0.132,0.132 h -0.132 l 0.265,0.395 v 0.133 l -0.265,0.262 0.265,0.658 h 0.13 c 0,-0.351 0.089,-0.527 0.265,-0.527 v 0 h 0.263 c 0.174,0.704 0.439,1.054 0.79,1.054 v 0 1.317 l -0.528,0.133 v -0.264 c 0.263,0 0.397,-0.088 0.397,-0.264 v 0 h -0.397 V 70.58 h 0.263 v -0.264 l -0.13,0.131 -0.133,-0.131 c -0.175,0 -0.262,0.131 -0.262,0.395 v 0 h -0.263 V 70.58 l 0.13,-0.133 v -0.131 l -0.13,-0.131 h 0.13 l 0.133,-0.133 -0.133,-0.395 v -0.13 l 0.133,-0.132 h -0.528 l -0.395,0.394 v 0.133 l 0.265,0.263 -0.265,0.395 v 0.789 h 0.265 c 0,-0.263 0.13,-0.394 0.395,-0.394 v 0 h 0.13 l 0.133,0.131 c 0,0.176 -0.133,0.263 -0.397,0.263 v 0 0.133 l 0.527,0.132 h 0.132 l 0.133,-0.132 v 0.132 l 0.13,0.13 v 0.132 l -0.263,0.263 c -0.175,0 -0.262,-0.13 -0.262,-0.395 v 0 h -0.133 v 0.395 h -0.264 c 0,-0.35 -0.131,-0.525 -0.394,-0.525 v 0 h -0.132 v 1.183 l 0.526,-0.393 h 0.134 l 0.13,0.132 -0.13,0.395 v 0.131 l 0.13,0.132 h -0.13 l -0.134,0.131 c 0,-0.263 -0.131,-0.394 -0.394,-0.394 v 0 h -0.132 v 2.106 l 0.132,1.317 -0.132,0.132 h 0.265 l 0.261,-0.921 v -0.133 l -0.131,-0.131 0.131,-0.132 c -0.261,0 -0.394,-0.088 -0.394,-0.262 v 0 -0.133 l 0.263,-0.264 h 0.265 v 0.264 l -0.134,0.133 h 0.134 c 1.008,-1.758 2.018,-2.635 3.029,-2.635 v 0 h 0.263 l 0.79,0.264 0.131,-4.347 v -0.132 h 0.264 v 1.185 l -0.132,1.713 0.132,1.449 v 0.393 l 0.394,0.397 1.976,-0.527 v -0.131 l -0.131,-0.132 v -1.713 h 0.263 v 1.845 c 1.055,0 2.063,0.483 3.029,1.448 v 0 l 0.132,-0.132 h 0.131 l 0.132,0.132 0.132,-0.527 v -0.132 h -0.132 v 0.264 h -0.132 v -0.132 c 0,-0.747 0.176,-1.142 0.527,-1.185 v 0 l 0.131,0.132 -0.131,-0.528 h -0.132 l -0.131,0.133 h -0.132 c 0,-0.704 0.35,-1.273 1.054,-1.713 v 0 h 3.423 l 0.924,0.923 v 3.555 h -0.528 l -0.264,0.263 v 0.132 h 0.527 l 0.265,0.263 v 0.133 h -0.265 v 0.395 h 0.265 v 0.131 h -0.265 c 0,0.351 -0.087,0.528 -0.263,0.528 v 0 c 0,0.262 -0.087,0.395 -0.264,0.395 v 0 h -0.132 c 0,-0.352 -0.218,-0.528 -0.658,-0.528 v 0 h -0.13 v 1.316 l 0.13,0.66 -0.13,0.132 h 0.13 v 0.131 l -0.13,0.131 v 0.659 c 0.197,0.439 0.503,0.659 0.92,0.659 v 0 0.264 l -0.92,0.263 v 6.188 l -0.265,0.265 h -0.263 l -1.185,-0.132 -0.395,0.132 0.132,-1.053 c 0,-2.131 -0.922,-3.622 -2.766,-4.477 v 0 -0.397 l 0.525,-0.263 -0.262,-0.526 h -0.263 v 0.263 h -0.133 v -0.395 c -0.175,0 -0.264,0.132 -0.264,0.395 v 0 c -0.176,0 -0.261,-0.132 -0.261,-0.395 v 0 c -0.265,0 -0.397,-0.087 -0.397,-0.264 v 0 h -0.131 v 0.132 c 0.153,0.395 0.416,0.702 0.789,0.922 v 0 0.131 l -0.131,0.132 -1.58,-0.263 h -0.263 l -0.79,7.242 0.264,6.323 v 0.79 c 0.855,-0.308 1.514,-0.658 1.974,-1.055 v 0 c 2.284,-2.698 3.425,-5.025 3.425,-6.979 v 0 h 0.264 c 0,1.032 -0.703,3.007 -2.108,5.926 v 0 c -0.987,1.45 -2.129,2.371 -3.424,2.768 v 0 c -0.724,3.311 -1.382,5.245 -1.974,5.793 v 0 c 0.964,-2.743 1.448,-4.632 1.448,-5.663 v 0 c -0.945,0 -1.691,-0.264 -2.241,-0.79 v 0 l -4.477,6.19 v 0.658 h 5.137 l 0.133,-0.131 0.13,0.131 h 2.502 l 0.658,0.132 c 2.195,0 3.908,-0.572 5.139,-1.712 v 0 h 0.261 v 0.263 h 0.264 v -0.131 l -0.264,-0.264 c 0,-0.351 0.176,-0.615 0.527,-0.791 v 0 c 0.22,0 0.44,0.308 0.658,0.923 v 0 h 0.133 v -0.132 l -0.526,-1.054 1.053,-2.897 c 0.35,-2.283 0.659,-3.424 0.921,-3.424 v 0 h 1.316 l 0.265,0.264 v 6.19 h -0.265 v -0.265 h -0.13 v 0.132 c 0,0.284 0.13,0.594 0.395,0.921 v 0 3.952 l -0.265,0.263 h -11.062 l -1.185,-0.131 -0.922,0.131 h -6.98 c -1.316,2.7 -1.975,4.632 -1.975,5.795 v 0 1.976 l -0.263,2.765 c 0,1.231 0.395,2.678 1.185,4.346 v 0 z m -0.79,-11.063 h 0.132 c 0,-0.46 0.352,-1.557 1.053,-3.292 v 0 h -0.132 l 0.132,-0.395 v -0.132 c -0.198,0 -0.461,0.704 -0.79,2.109 v 0 h -0.263 v -0.133 l 0.527,-1.976 h -0.922 z m 21.204,-8.822 0.525,1.316 h 0.265 v -0.131 l -0.658,-1.318 h -0.132 z m -1.45,1.185 h 0.264 l -0.264,-0.264 z m -21.598,-1.185 c 0,0.438 0.218,0.833 0.658,1.185 v 0 l -0.525,-1.318 h -0.133 z m 21.994,0.263 c 0,0.285 0.219,0.548 0.658,0.79 v 0 h 0.133 c -0.441,-0.483 -0.66,-0.923 -0.66,-1.318 v 0 h -0.131 z m -18.438,0.79 v -0.132 l -0.264,-0.263 h -0.131 z m -1.448,-0.66 0.658,0.66 h 0.131 c -0.439,-0.505 -0.658,-0.945 -0.658,-1.318 v 0 h -0.131 z m 2.238,0.528 h 0.264 l -0.527,-1.186 h -0.396 z m 0.659,-0.791 h 0.132 v -0.263 h -0.132 z m 0.921,-12.642 c 0.439,1.295 0.66,2.612 0.66,3.952 v 0 l -0.66,4.608 v 3.029 h 0.132 l 3.293,-4.477 -0.263,-0.79 v -0.264 h 0.132 l 0.131,0.131 c 0,0.265 0.088,0.396 0.264,0.396 v 0 c 1.096,-1.34 1.931,-3.578 2.501,-6.717 v 0 l -0.79,-6.321 h -0.13 c 0,4.061 -0.923,6.605 -2.768,7.637 v 0 0.792 h -0.262 v -0.792 c -1.405,-0.856 -2.108,-1.776 -2.108,-2.764 v 0 h -0.132 z m 4.742,7.639 c 0.066,0.438 0.416,0.658 1.053,0.658 v 0 h 0.923 l -0.265,-5.532 h -0.131 c 0,0.57 -0.527,2.195 -1.58,4.874 m -2.107,-8.034 v 0.526 l -0.133,0.132 c 1.363,0 2.195,-2.019 2.503,-6.058 v 0 -0.658 h -0.132 c -1.405,2.282 -2.106,4.082 -2.106,5.4 v 0 h -0.265 c 0,-1.165 0.571,-2.877 1.713,-5.137 v 0 -0.132 h -0.133 l -0.13,0.132 h -1.054 l -0.263,-0.263 -0.395,0.263 h -1.845 l -0.13,-0.132 v 1.187 c 0,3.598 0.658,5.398 1.975,5.398 v 0 h 0.131 v -0.658 z m 10.535,-1.58 0.132,0.395 -0.263,0.79 0.263,0.395 0.658,-1.053 v -0.132 c -0.351,0 -0.526,-0.308 -0.526,-0.922 v 0 h -0.132 z m -6.586,-2.767 -0.131,4.082 v 0.133 h 0.131 c 0.265,-1.01 0.396,-2.063 0.396,-3.161 v 0 -2.502 h -0.658 l -0.132,0.132 -0.132,-0.395 h -0.263 l 0.395,4.213 h 0.132 v -2.502 z m 6.718,2.109 h 0.132 v -0.265 h -0.132 z m -17.12,-2.767 h 0.658 v -0.13 h -0.658 z m 16.988,-0.13 0.395,-0.133 -0.263,-0.264 h -0.132 l -0.131,0.132 -0.132,-0.132 -0.263,0.264 0.395,0.133 v -0.133 z m -17.385,0 h 0.265 v -0.132 h -0.265 z m 2.635,-0.528 h 0.132 v -0.395 h -0.263 z m -1.58,-0.264 0.263,0.264 v -0.132 l -0.263,-0.263 z m 12.907,-0.658 0.263,-0.263 h -0.263 z m -0.527,-0.395 h 0.132 v -0.395 h -0.132 z m -11.063,-1.054 0.132,0.131 v 0.133 l -0.132,0.131 v 0.132 h 0.263 V 79.14 l -0.131,-0.658 h -0.132 z m 11.063,-1.186 v 0.263 c 0.702,0.375 1.272,0.813 1.711,1.318 v 0 c 0,-0.264 0.132,-0.395 0.395,-0.395 v 0 c -0.35,-0.483 -0.526,-0.966 -0.526,-1.448 v 0 h -0.132 v 0.13 l 0.263,0.923 -0.263,0.264 -0.528,-0.527 0.395,-0.79 h -0.262 l -0.133,0.13 c -0.175,-0.393 -0.351,-0.615 -0.527,-0.658 v 0 h -0.526 l -0.132,0.395 h -0.131 l -0.13,-0.13 0.393,-0.791 c 0.44,0 0.66,-0.132 0.66,-0.396 v 0 h 0.263 l -0.133,0.659 0.396,0.263 v 0.265 h 0.395 l 0.132,-0.133 v 0.133 l 0.658,-0.265 v -0.13 c -0.351,0 -0.527,-0.177 -0.527,-0.528 v 0 l -0.131,0.132 c -0.351,-0.132 -0.527,-0.263 -0.527,-0.396 v 0 h 0.262 v -0.131 h -0.395 l 0.265,-0.395 0.13,0.131 0.133,-0.131 c 0.439,0.264 0.658,0.614 0.658,1.053 v 0 l 0.528,-0.131 -0.265,-0.263 0.133,-0.133 c -1.01,-1.755 -2.285,-2.633 -3.82,-2.633 v 0 h -0.13 v 3.555 l 0.13,0.132 -0.13,0.133 0.657,0.13 0.131,-0.13 h 0.134 l -0.265,0.263 h -0.657 v 1.185 l 0.657,-0.132 0.131,0.659 h 0.134 l 0.13,-0.659 h 0.131 l 0.132,0.132 h 0.395 v -0.265 h -0.922 v -0.263 h 0.134 l 0.393,-0.395 z m 0.527,1.581 h 0.265 v -0.13 h -0.265 z m -7.245,-0.264 0.265,0.264 h 0.262 c 0,-0.264 0.176,-0.395 0.528,-0.395 v 0 h 0.132 l -0.132,-0.395 v -0.263 c 0.263,0 0.395,0.175 0.395,0.527 v 0 l 0.658,-0.66 v -0.92 l -0.133,-0.133 0.396,0.133 h 0.132 V 75.98 h 0.265 c 0,1.777 0.306,2.787 0.92,3.029 v 0 l 0.659,-0.133 v -0.262 c -0.265,0 -0.396,-0.088 -0.396,-0.264 v 0 h -0.263 v -0.263 h 0.394 v 0.263 h 0.265 v -0.133 c 0,-0.438 -0.131,-0.658 -0.396,-0.658 v 0 l 0.131,-0.79 c -0.35,-1.317 -0.745,-2.282 -1.184,-2.897 v 0 l -0.263,0.263 v 1.317 h -0.264 v -1.185 h -0.131 l -0.66,0.527 -2.107,2.503 v 0.13 l 0.133,0.132 c -0.219,0 -0.44,0.352 -0.66,1.055 v 0 h -0.13 l -0.133,-0.132 v 0.263 c 0.528,0 0.79,0.089 0.79,0.264 v 0 c 0.154,0 0.287,-0.264 0.396,-0.792 v 0 l -0.263,-0.263 v -0.395 l 0.659,0.528 v 0.13 h -0.265 z m 11.458,-0.131 0.132,0.131 h 0.263 v -0.131 l -0.263,-0.263 h -0.132 z m -0.921,0 0.263,-0.263 h -0.263 z m -6.059,-1.581 0.133,1.318 v 0.263 h 0.394 v -1.581 l -0.131,-0.13 z m -7.901,1.053 0.263,0.397 h 0.265 v -0.132 c -0.265,0 -0.395,-0.308 -0.395,-0.923 v 0 h -0.133 z m 1.581,0.265 h 0.13 l 0.395,-0.528 h -0.132 l -0.13,-0.132 h -0.263 z m -2.503,-0.132 h 0.132 v -0.395 h -0.132 z m -1.975,-0.133 h 0.261 l -0.261,-0.263 z m 17.517,-0.13 h 0.13 v -0.395 h -0.13 z m -0.923,0 h 0.13 v -0.265 h -0.13 z m -17.121,-0.265 h 0.263 v -0.13 h -0.263 z m 9.218,-0.13 h 0.132 v -0.527 h -0.132 z m -3.555,-1.318 -0.395,0.66 h 0.13 l -0.263,0.393 v 0.132 l 0.395,0.133 v -0.133 c 0.222,0 0.352,-0.219 0.397,-0.658 v 0 l 0.131,0.133 3.16,-3.294 c 0,-0.351 -0.176,-0.571 -0.526,-0.658 v 0 c -1.274,0 -2.239,0.834 -2.899,2.503 v 0 0.131 l 0.134,0.131 v 0.133 h -0.264 v 0.131 h 0.264 l 0.131,-0.131 v 0.263 l -0.131,0.131 h -0.134 l -0.13,-0.131 z m -8.562,1.318 h 0.132 l 0.132,-0.395 -0.395,-0.133 h -0.13 v 0.133 l 0.13,0.13 h -0.527 v 0.132 h 0.527 l 0.131,-0.132 z m 2.109,-0.133 h 0.395 v -0.13 h -0.395 z m 11.984,-0.525 0.658,-0.133 v -3.687 c -0.592,0 -1.12,0.131 -1.581,0.395 v 0 h -0.131 c 0.702,1.6 1.054,2.744 1.054,3.425 m 8.956,-1.187 c -0.351,0 -0.527,0.088 -0.527,0.264 v 0 0.263 h 0.394 c 0,-0.263 0.088,-0.394 0.264,-0.394 v 0 -0.395 h -0.131 z m -0.923,0.396 h 0.263 l 0.133,-0.658 h -0.396 z m -2.898,-1.054 0.133,0.132 V 74.53 l -0.133,0.132 -0.658,-0.527 h -0.395 v 0.132 c 0.306,0 0.571,0.35 0.791,1.054 v 0 l 0.132,-0.132 z m 3.294,-0.922 0.527,0.131 v -0.131 h 0.263 l -0.263,-0.395 -0.265,0.263 h -0.13 l -0.132,-0.131 z m -3.556,-0.132 0.262,0.263 h 0.133 l -0.395,-0.394 z m 3.03,0.132 h 0.263 v -0.132 h -0.263 z m -2.371,0 0.263,-0.263 h -0.263 z m -0.659,-0.527 0.527,0.395 0.132,-0.526 -0.397,-0.264 h -0.13 z m 3.03,0.264 h 0.263 v -0.13 h -0.263 z m -3.557,-0.922 v 0.132 h 0.527 l -0.133,-0.132 v -0.131 l 0.133,-0.134 H 129.7 Z m 1.449,-0.79 h 0.263 V 72.16 h -0.263 z m -12.644,-5.927 h 0.131 v -0.263 h -0.131 z m -2.765,-0.395 h 0.131 v -0.264 h -0.131 z m 1.185,-0.132 v -0.394 l -0.395,-0.134 z m -2.107,0 0.264,-0.263 h -0.264 z m 3.029,-0.132 h 0.265 v -0.131 h -0.265 z m -4.61,-0.131 h 0.132 V 65.31 h -0.132 z m -0.921,0 h 0.131 V 65.31 h -0.131 z m 5.004,-0.527 0.397,0.396 -0.265,-1.054 h -0.132 z m -1.712,0.396 h 0.132 v -0.263 h -0.132 z m -1.053,-0.134 h 0.132 l 0.131,-0.13 -0.395,-0.79 h -0.396 z m 0.79,-0.658 v 0.265 h 0.131 v -0.132 l -0.131,-0.395 h -0.397 c 0,0.175 0.134,0.262 0.397,0.262 m -2.37,-0.13 h 0.13 v -0.263 h -0.13 z m -1.714,-2.371 v 0.131 c 0.264,0 0.397,0.088 0.397,0.264 v 0 c 0,0.176 -0.133,0.264 -0.397,0.264 v 0 0.264 l 0.527,0.263 v -1.186 l -0.13,-0.132 z m 7.639,-1.186 v 0.132 l 0.528,0.131 v -0.131 h 0.262 l -0.262,-0.527 h -0.133 c 0,0.265 -0.13,0.395 -0.395,0.395 m -11.984,-2.896 v 0.13 c 0.35,0 0.526,0.133 0.526,0.395 v 0 h 0.133 c 0,-0.262 0.131,-0.395 0.395,-0.395 v 0 -0.13 l -0.395,-0.132 z m 1.713,-0.264 h 0.13 v -0.264 h -0.13 z m -0.132,-0.395 h 0.264 v -0.264 h -0.264 z m -3.294,-1.975 0.132,0.13 -0.395,1.185 h 0.133 c 0,0.287 0.219,0.505 0.657,0.66 v 0 -1.58 l 0.265,-0.395 c -0.265,0 -0.395,-0.089 -0.395,-0.265 v 0 l -0.132,0.132 h -0.133 l -0.132,-0.132 0.132,-0.393 -0.132,-0.395 -0.921,0.525 0.395,0.79 0.396,-0.262 z m 3.162,1.58 h 0.264 c -0.066,-0.44 -0.199,-0.658 -0.397,-0.658 v 0 z m -3.688,-0.132 h 0.131 v -0.264 h -0.131 z m 6.058,-0.133 h 0.131 v -0.264 h -0.131 z m 13.565,-0.527 h 0.131 V 55.96 h -0.131 z m 1.054,-0.131 h 0.264 V 55.96 h -0.264 z m -0.923,-0.395 v 0.133 h 0.132 l 0.132,-0.395 V 55.302 H 124.3 Z m -0.789,0.133 0.263,-0.265 v -0.263 h -0.263 z m -14.224,0 h 0.131 v -0.395 h -0.131 z m -2.897,-0.133 v 0.133 h 0.527 v -0.265 z m 16.461,0 h 0.263 v -0.132 h -0.263 z m 0.133,-0.395 h 0.131 v -0.263 h -0.131 z m 0.527,-0.132 h 0.265 v -0.13 h -0.265 z m -16.594,-0.263 h 0.265 v -0.13 h -0.265 z m 14.355,37.93 -0.131,-0.658 h 0.262 l 0.133,0.658 z m -0.263,-0.923 -0.264,-2.238 v -0.13 h 0.264 l 0.263,2.368 z m 13.301,-11.456 v -0.264 l 0.528,0.132 v 0.263 z m -0.131,-0.923 -0.133,-0.132 c -0.022,-0.482 -0.197,-0.877 -0.527,-1.186 v 0 -0.13 h 0.265 l 0.13,0.13 v -0.13 c 0.177,0 0.265,0.13 0.265,0.395 v 0 h 0.263 v 0.132 l -0.132,0.131 v 0.131 l 0.528,0.133 v 0.394 h -0.133 V 79.14 h -0.395 v 0.132 l 0.132,0.131 v 0.132 z m 0.263,-1.318 v -0.658 h 0.396 v 0.263 c -0.177,0 -0.265,0.132 -0.265,0.395 v 0 z m -0.528,-0.395 h 0.265 v 0.132 h -0.265 z m -12.511,-0.525 0.265,-0.263 v 0.263 c 0.35,0 0.526,0.087 0.526,0.262 v 0 0.133 h -0.263 l -0.132,-0.133 c 0,0.263 -0.088,0.395 -0.263,0.395 v 0 z m -0.658,0.395 0.264,-0.265 h 0.132 l -0.265,0.265 z m 13.169,-0.395 h 0.265 v 0.13 h -0.265 z m -12.905,-0.263 h 0.131 v 0.265 h -0.131 z m -10.01,-1.845 v -0.262 l 0.528,-0.397 -0.133,0.659 z m -1.053,0 v -0.527 h 0.131 l 0.263,0.265 v 0.262 z m 8.954,-0.922 -0.131,-0.132 0.131,-0.395 h 0.397 v 0.527 z m 0.397,-1.58 v -0.131 h 0.13 c 0.265,0 0.395,0.086 0.395,0.261 v 0 z m -8.428,-0.131 -0.397,-0.264 v -0.396 h 0.132 c 0,0.263 0.176,0.396 0.526,0.396 v 0 0.264 z m 0,-1.317 v -0.528 c 0.261,0 0.393,-0.087 0.393,-0.264 v 0 h 0.132 l 0.133,0.133 c -0.111,0.437 -0.242,0.659 -0.397,0.659 v 0 z m 14.749,-1.054 c -0.264,-2.81 -0.615,-4.215 -1.054,-4.215 v 0 h -0.264 c -0.286,0 -0.503,0.614 -0.656,1.844 v 0 h -0.265 c 0.175,-1.492 0.484,-2.239 0.921,-2.239 v 0 h 0.396 c 0.505,0 0.9,1.536 1.185,4.61 v 0 z m -14.883,0 v -0.396 l 0.264,0.263 v 0.133 z m 8.034,-1.843 v -0.265 l 0.658,-0.263 0.265,0.395 v 0.133 l -0.133,-0.133 -0.525,0.395 z m -8.297,-0.265 h 0.265 v 0.132 h -0.265 z m 9.22,-0.526 0.264,-0.264 h 0.131 v 0.264 z m -0.528,-0.922 v -0.264 h 0.263 l 0.265,0.264 z m 0.133,-1.977 V 64.39 l 0.13,-0.133 -0.13,-0.13 v -0.132 h 0.659 l 0.131,0.132 v 0.13 l -0.131,0.133 c -0.264,0 -0.397,0.087 -0.397,0.262 v 0 z m -0.133,-1.842 0.263,-0.264 0.66,0.131 v 0.133 h -0.265 v 0.264 l 0.134,0.13 -0.659,0.133 z m -0.525,0.131 0.13,-0.395 v -0.131 l -0.13,-0.133 h 0.395 l -0.134,0.659 z m -8.957,-2.24 v -0.262 l -0.526,-0.264 v -0.263 h 0.526 l 0.132,0.132 -0.132,0.395 h 0.132 v 0.262 z m 0,-1.314 h 0.132 v 0.263 h -0.132 z m -0.526,-0.528 h 0.131 v 0.265 h -0.131 z m 14.749,-4.347 h 0.132 v 0.263 h -0.132 z m 0.527,-0.395 h 0.131 v 0.265 H 124.3 Z"
               style="fill:url(#linearGradient476);stroke:none"
               id="path478" /></g></g></g></g></g></svg>
